<?xml version="1.0" encoding="UTF-8"?>
<svg xmlns="http://www.w3.org/2000/svg" xmlns:xlink="http://www.w3.org/1999/xlink" width="128px" height="128px" viewBox="-20 -20 168 168" version="1.1">
<path d="M 46.082031 7.679688 C 46.082031 3.4375 49.523438 0 53.761719 0 C 82.039062 0 104.964844 22.921875 104.964844 51.199219 C 104.964844 55.441406 101.523438 58.878906 97.285156 58.878906 C 93.042969 58.878906 89.601562 55.441406 89.601562 51.199219 C 89.601562 31.40625 73.558594 15.359375 53.761719 15.359375 C 49.523438 15.359375 46.082031 11.921875 46.082031 7.679688 Z M 46.082031 7.679688 "/>
<path d="M 81.917969 120.320312 C 81.917969 124.5625 78.476562 128 74.238281 128 C 45.960938 128 23.035156 105.078125 23.035156 76.800781 C 23.035156 72.558594 26.476562 69.121094 30.714844 69.121094 C 34.957031 69.121094 38.398438 72.558594 38.398438 76.800781 C 38.398438 96.59375 54.441406 112.640625 74.238281 112.640625 C 78.476562 112.640625 81.917969 116.078125 81.917969 120.320312 Z M 81.917969 120.320312 "/>
<path d="M 7.679688 81.921875 C 3.4375 81.921875 0 78.480469 0 74.242188 C 0 45.964844 22.921875 23.039062 51.199219 23.039062 C 55.441406 23.039062 58.878906 26.480469 58.878906 30.71875 C 58.878906 34.960938 55.441406 38.398438 51.199219 38.398438 C 31.40625 38.398438 15.359375 54.445312 15.359375 74.242188 C 15.359375 78.480469 11.921875 81.921875 7.679688 81.921875 Z M 7.679688 81.921875 "/>
<path d="M 120.320312 46.078125 C 124.5625 46.078125 128 49.519531 128 53.757812 C 128 82.035156 105.078125 104.960938 76.800781 104.960938 C 72.558594 104.960938 69.121094 101.519531 69.121094 97.28125 C 69.121094 93.039062 72.558594 89.601562 76.800781 89.601562 C 96.59375 89.601562 112.640625 73.554688 112.640625 53.757812 C 112.640625 49.519531 116.078125 46.078125 120.320312 46.078125 Z M 120.320312 46.078125 "/>
</svg>
