<?xml version="1.0" encoding="UTF-8"?>
<svg xmlns="http://www.w3.org/2000/svg" xmlns:xlink="http://www.w3.org/1999/xlink"  width="128px" height="128px" viewBox="-20 -20 168 168" version="1.1">
<path d="M 42.8125 100.617188 C 42.8125 101.132812 42.21875 101.546875 41.472656 101.546875 C 40.621094 101.625 40.027344 101.210938 40.027344 100.617188 C 40.027344 100.097656 40.621094 99.6875 41.367188 99.6875 C 42.140625 99.609375 42.8125 100.023438 42.8125 100.617188 Z M 34.785156 99.453125 C 34.605469 99.96875 35.121094 100.5625 35.898438 100.71875 C 36.566406 100.976562 37.34375 100.71875 37.496094 100.203125 C 37.652344 99.6875 37.160156 99.09375 36.386719 98.859375 C 35.714844 98.679688 34.96875 98.9375 34.785156 99.453125 Z M 46.195312 99.015625 C 45.445312 99.195312 44.929688 99.6875 45.007812 100.28125 C 45.082031 100.796875 45.753906 101.132812 46.527344 100.953125 C 47.277344 100.769531 47.792969 100.28125 47.714844 99.765625 C 47.640625 99.273438 46.941406 98.9375 46.195312 99.015625 Z M 63.175781 0.046875 C 27.378906 0.046875 0 27.242188 0 63.0625 C 0 91.707031 18.011719 116.214844 43.742188 124.839844 C 47.046875 125.433594 48.207031 123.394531 48.207031 121.714844 C 48.207031 120.113281 48.128906 111.28125 48.128906 105.859375 C 48.128906 105.859375 30.066406 109.734375 26.269531 98.164062 C 26.269531 98.164062 23.328125 90.648438 19.097656 88.710938 C 19.097656 88.710938 13.1875 84.65625 19.507812 84.734375 C 19.507812 84.734375 25.933594 85.25 29.472656 91.394531 C 35.121094 101.363281 44.59375 98.5 48.285156 96.792969 C 48.878906 92.660156 50.554688 89.792969 52.414062 88.089844 C 37.988281 86.488281 23.433594 84.398438 23.433594 59.550781 C 23.433594 52.449219 25.394531 48.886719 29.523438 44.339844 C 28.851562 42.660156 26.65625 35.738281 30.195312 26.804688 C 35.585938 25.125 48 33.777344 48 33.777344 C 53.160156 32.332031 58.710938 31.582031 64.207031 31.582031 C 69.703125 31.582031 75.25 32.332031 80.414062 33.777344 C 80.414062 33.777344 92.824219 25.097656 98.21875 26.804688 C 101.753906 35.765625 99.5625 42.660156 98.890625 44.339844 C 103.019531 48.910156 105.546875 52.476562 105.546875 59.550781 C 105.546875 84.472656 90.347656 86.464844 75.921875 88.089844 C 78.296875 90.128906 80.308594 94.003906 80.308594 100.074219 C 80.308594 108.777344 80.230469 119.546875 80.230469 121.664062 C 80.230469 123.34375 81.417969 125.382812 84.695312 124.789062 C 110.503906 116.214844 128 91.707031 128 63.0625 C 128 27.242188 98.96875 0.046875 63.175781 0.046875 Z M 25.082031 89.125 C 24.75 89.382812 24.824219 89.976562 25.265625 90.464844 C 25.675781 90.878906 26.269531 91.058594 26.605469 90.722656 C 26.941406 90.464844 26.863281 89.871094 26.425781 89.382812 C 26.011719 88.96875 25.417969 88.789062 25.082031 89.125 Z M 22.296875 87.03125 C 22.117188 87.367188 22.375 87.78125 22.890625 88.039062 C 23.304688 88.296875 23.820312 88.21875 24 87.859375 C 24.179688 87.523438 23.921875 87.109375 23.40625 86.851562 C 22.890625 86.695312 22.476562 86.773438 22.296875 87.03125 Z M 30.65625 96.226562 C 30.246094 96.5625 30.398438 97.335938 30.992188 97.828125 C 31.585938 98.421875 32.335938 98.5 32.671875 98.085938 C 33.007812 97.75 32.851562 96.972656 32.335938 96.484375 C 31.769531 95.890625 30.992188 95.8125 30.65625 96.226562 Z M 27.714844 92.429688 C 27.304688 92.6875 27.304688 93.359375 27.714844 93.953125 C 28.128906 94.546875 28.824219 94.804688 29.160156 94.546875 C 29.574219 94.210938 29.574219 93.539062 29.160156 92.945312 C 28.800781 92.351562 28.128906 92.09375 27.714844 92.429688 Z M 27.714844 92.429688 "/>
</svg>
