<svg xmlns="http://www.w3.org/2000/svg" width="104" height="59" fill="none"><g clip-path="url(#a)"><path fill="#fff" d="M0 0h104v59H0z"/><path fill="#91D6EC" fill-rule="evenodd" d="M22.008 36.21c8.182-7.892 6.6-22.981-3.76-33.721C7.888-8.251-7.135-10.375-15.317-2.483c-8.182 7.893-6.6 22.982 3.76 33.722 10.36 10.74 25.383 12.864 33.565 4.972zm.208.217c8.35-8.055 6.67-23.342-3.753-34.146C8.041-8.523-7.175-10.753-15.524-2.7c-8.35 8.055-6.67 23.342 3.753 34.146 10.422 10.805 25.639 13.034 33.988 4.98z" clip-rule="evenodd" opacity=".3"/><path fill="#9E91EC" fill-rule="evenodd" d="M114.475 20.36a5.053 5.053 0 0 0-.164-.086c-.146-.074-1.249-.834-3.456-2.355a8.155 8.155 0 0 0-4.55-1.441 8.153 8.153 0 0 0-4.373 1.204c-2.57 1.576-3.856 2.364-3.988 2.425a7.155 7.155 0 0 0-.153.072 1.357 1.357 0 0 0-.226.13 1.36 1.36 0 0 0-.26-.004 5.39 5.39 0 0 0-.17.012c-.145.011-1.651-.053-4.663-.182a8.157 8.157 0 0 0-4.407 1.072 8.157 8.157 0 0 0-3.248 3.413c-1.259 2.491-1.889 3.737-1.978 3.868l-.09.134-.013.022c-.094.147-.125.218-.131.25-.032.005-.103.036-.25.129l-.023.013a5.79 5.79 0 0 0-.135.088c-.131.089-1.381.709-3.882 1.948a8.157 8.157 0 0 0-3.425 3.198 8.157 8.157 0 0 0-1.11 4.645c.169 2.705.253 4.057.241 4.219a5.906 5.906 0 0 0-.01.178v.015c-.008.192.004.265.015.289-.022.015-.07.072-.16.24l-.008.013a5.537 5.537 0 0 0-.082.16c-.072.144-.834 1.265-2.358 3.506a8.158 8.158 0 0 0-1.413 4.54 8.157 8.157 0 0 0 1.259 4.429c1.56 2.475 2.341 3.712 2.405 3.849a5.922 5.922 0 0 0 .077.158 1.2 1.2 0 0 0 .138.232 1.19 1.19 0 0 0-.007.27 5.82 5.82 0 0 0 .01.175c.012.15-.062 1.612-.21 4.534a8.157 8.157 0 0 0 1.084 4.497 8.157 8.157 0 0 0 3.408 3.227c2.487 1.252 3.73 1.879 3.861 1.968.051.035.096.064.136.09l.02.013c.15.095.22.126.251.131.006.031.036.102.13.252a5.023 5.023 0 0 0 .102.157c.088.132.706 1.379 1.943 3.873v.001a8.158 8.158 0 0 0 3.224 3.44 8.158 8.158 0 0 0 4.568 1.098h.003c2.785-.156 4.178-.234 4.335-.223.06.005.114.008.161.01l.026.002c.174.007.252-.001.282-.012.02.024.083.07.237.153l.023.012c.041.022.09.046.144.073.142.069 1.304.842 3.629 2.387a8.156 8.156 0 0 0 4.499 1.365 8.157 8.157 0 0 0 4.438-1.285h.001c2.448-1.564 3.672-2.346 3.81-2.411.044-.022.084-.04.12-.059l.039-.02c.139-.07.205-.115.232-.14.037.008.116.014.272.007l.044-.003.133-.009c.152-.011 1.603.06 4.505.203a8.16 8.16 0 0 0 4.513-1.1 8.157 8.157 0 0 0 3.2-3.393c1.269-2.519 1.903-3.778 1.991-3.908.032-.048.061-.09.085-.129l.016-.025a.992.992 0 0 0 .13-.248.993.993 0 0 0 .248-.13l.025-.016a6.44 6.44 0 0 0 .129-.086c.129-.088 1.388-.724 3.905-1.995a8.154 8.154 0 0 0 3.4-3.223 8.16 8.16 0 0 0 1.079-4.59v-.002c-.172-2.769-.258-4.153-.247-4.312l.009-.164.001-.024c.007-.178-.003-.254-.013-.283.023-.02.07-.081.153-.238l.011-.021.074-.148c.069-.143.834-1.3 2.363-3.614l.001-.001a8.16 8.16 0 0 0 1.353-4.513 8.154 8.154 0 0 0-1.409-4.597c-1.469-2.164-2.203-3.246-2.276-3.395a6.136 6.136 0 0 0-.09-.176l-.003-.005c-.103-.191-.149-.237-.166-.244.011-.015.029-.077.024-.295v-.005a6.045 6.045 0 0 0-.008-.197c-.01-.166.097-1.469.309-4.074l.001-.002a8.156 8.156 0 0 0-1.038-4.698 8.162 8.162 0 0 0-3.367-3.243c-2.522-1.3-3.782-1.95-3.91-2.04a5.264 5.264 0 0 0-.152-.101 1.02 1.02 0 0 0-.245-.133 1.041 1.041 0 0 0-.129-.247l-.017-.027a9.533 9.533 0 0 0-.082-.126c-.087-.13-.719-1.399-1.982-3.939a8.162 8.162 0 0 0-3.167-3.4 8.157 8.157 0 0 0-4.669-1.124c-2.674.165-4.011.248-4.174.236a5.55 5.55 0 0 0-.186-.01l-.01-.001c-.199-.008-.27.005-.291.016-.013-.02-.067-.068-.241-.164l-.01-.005zm-.011.341a3.062 3.062 0 0 0-.288-.16 4.3 4.3 0 0 1-.323-.202 97.93 97.93 0 0 1-.667-.452c-.57-.39-1.397-.96-2.498-1.719l-.003-.002a7.857 7.857 0 0 0-4.383-1.388 7.858 7.858 0 0 0-4.214 1.16 1157.386 1157.386 0 0 1-3.673 2.244c-.17.102-.294.174-.347.198-.09.041-.157.074-.204.099a.323.323 0 0 1-.126.123.377.377 0 0 1-.182.047c-.019 0-.094 0-.17-.046a4.61 4.61 0 0 0-.227.013 5.45 5.45 0 0 1-.4-.005c-.21-.006-.507-.018-.892-.033-.772-.03-1.902-.08-3.407-.143h-.001a7.857 7.857 0 0 0-4.245 1.033 7.858 7.858 0 0 0-3.13 3.287v.001c-.629 1.245-1.101 2.18-1.427 2.82-.163.32-.29.566-.383.742a4.73 4.73 0 0 1-.187.34 3.961 3.961 0 0 0-.16.25.312.312 0 0 1-.094.215.32.32 0 0 1-.217.093l-.019.01a4.491 4.491 0 0 0-.232.148 5.06 5.06 0 0 1-.34.185l-.746.376c-.642.321-1.58.786-2.83 1.405l-.001.001a7.858 7.858 0 0 0-3.3 3.081 7.858 7.858 0 0 0-1.068 4.474c.084 1.353.147 2.367.188 3.064.02.349.035.62.044.813.008.183.013.32.008.383a3.35 3.35 0 0 0-.011.32.31.31 0 0 1-.111.404c-.03.046-.079.132-.153.282a4.452 4.452 0 0 1-.203.325c-.106.162-.257.387-.452.676-.39.579-.961 1.42-1.722 2.539l-.002.002a7.858 7.858 0 0 0-1.36 4.373 7.857 7.857 0 0 0 1.211 4.267 950.729 950.729 0 0 1 1.765 2.802c.2.318.352.564.46.739.1.165.174.287.199.34.048.103.085.177.113.23a.321.321 0 0 1 .153.203.323.323 0 0 1-.032.253c0 .06.003.142.012.254.004.06 0 .201-.007.395-.008.206-.02.495-.038.87-.036.75-.091 1.846-.165 3.306v.001a7.857 7.857 0 0 0 1.044 4.332 7.857 7.857 0 0 0 3.283 3.109l.005.002c1.24.625 2.172 1.094 2.81 1.419.32.162.566.288.741.38.166.087.288.153.34.187.122.084.202.133.251.16a.31.31 0 0 1 .216.095.32.32 0 0 1 .092.215c.027.05.076.13.159.254.034.05.1.174.185.34.09.176.215.423.375.743.32.641.784 1.577 1.402 2.823v.002a7.857 7.857 0 0 0 3.107 3.314 7.858 7.858 0 0 0 4.4 1.058c1.394-.079 2.44-.137 3.156-.175.359-.019.636-.032.834-.04.187-.008.327-.012.388-.008a3.959 3.959 0 0 0 .297.013.308.308 0 0 1 .234-.026.319.319 0 0 1 .188.141l.019.011c.053.031.131.073.243.128.056.027.174.101.331.202.167.108.4.26.699.457.6.396 1.472.975 2.634 1.748a7.858 7.858 0 0 0 4.334 1.315 7.86 7.86 0 0 0 4.276-1.237c1.224-.782 2.142-1.37 2.772-1.77l.732-.46a5 5 0 0 1 .339-.2 3.81 3.81 0 0 0 .233-.118.326.326 0 0 1 .202-.151.324.324 0 0 1 .25.031 4.49 4.49 0 0 0 .261-.014c.059-.004.201 0 .394.006.204.008.491.02.864.037.745.034 1.833.088 3.282.16h.003a7.858 7.858 0 0 0 4.347-1.06 7.853 7.853 0 0 0 3.083-3.27 876.2 876.2 0 0 1 1.439-2.85c.164-.323.292-.573.384-.75.087-.167.153-.29.188-.34.07-.105.118-.18.148-.233l.007-.012a.324.324 0 0 1 .313-.313 7.857 7.857 0 0 0 7.458-5.275 7.863 7.863 0 0 0 1.04-4.423l-.001-.014c-.086-1.378-.15-2.412-.192-3.123a67.07 67.07 0 0 1-.045-.83 4.228 4.228 0 0 1-.009-.386c.01-.15.012-.245.011-.302a.318.318 0 0 1 .112-.419c.029-.048.075-.13.141-.267.027-.055.1-.173.2-.33a87.2 87.2 0 0 1 .453-.697c.392-.597.966-1.465 1.731-2.623a7.857 7.857 0 0 0 1.303-4.347c0-1.642-.5-3.166-1.357-4.428a867.604 867.604 0 0 1-1.662-2.455c-.189-.28-.334-.498-.437-.656a4.258 4.258 0 0 1-.199-.321 3.036 3.036 0 0 0-.166-.306.307.307 0 0 1-.101-.382 2.838 2.838 0 0 0-.005-.349 4.183 4.183 0 0 1 .014-.377c.012-.188.031-.45.057-.786.052-.674.132-1.652.239-2.955a7.861 7.861 0 0 0-1-4.525 7.853 7.853 0 0 0-3.244-3.124c-1.26-.65-2.206-1.138-2.853-1.475a71.542 71.542 0 0 1-.75-.394 4.825 4.825 0 0 1-.34-.19 4.06 4.06 0 0 0-.231-.152l-.007-.004a.324.324 0 0 1-.314-.318l-.004-.007a3.819 3.819 0 0 0-.147-.234c-.034-.05-.1-.174-.187-.342a80.04 80.04 0 0 1-.382-.756c-.327-.652-.801-1.605-1.432-2.874h-.001a7.859 7.859 0 0 0-3.051-3.275 7.856 7.856 0 0 0-4.497-1.084 883.69 883.69 0 0 1-3.03.185c-.345.02-.613.035-.805.043a4.392 4.392 0 0 1-.381.008 3.201 3.201 0 0 0-.329-.012.31.31 0 0 1-.397-.11zm23.055 40.27z" clip-rule="evenodd" opacity=".3"/><path fill="#9E91EC" d="M39.715 29.084c.888-.56 1.745-1.23 2.551-1.956a29.173 29.173 0 0 0 4.41-5.069l.974-1.462 1.04 1.417c1.114 1.52 2.847 3.757 4.762 5.604.958.923 1.931 1.72 2.868 2.278.947.566 1.766.835 2.44.835h5.47c-.083.847-.254 1.67-.501 2.458H58.76c-1.293 0-2.558-.5-3.702-1.182-1.154-.69-2.278-1.622-3.313-2.62-1.536-1.48-2.94-3.168-4.028-4.575-.891 1.158-2.205 2.701-3.807 4.143-1.15 1.036-2.5 2.064-3.987 2.847a12.36 12.36 0 0 1-.209-2.718z"/><path fill="#91AAEC" d="M40.627 34.17a21.772 21.772 0 0 0 1.797-.962c2.222-1.323 3.86-2.922 4.396-3.469l.837-.854.877.813.524.492c1.065 1 2.47 2.323 4.008 3.364 1.844 1.25 3.68 2.093 5.224 2.093h4.357a12.34 12.34 0 0 1-1.87 2.459H58.29c-2.312 0-4.667-1.205-6.603-2.517-1.328-.9-2.551-2.014-3.547-2.92l-.435-.395-.016.013c-.912.799-2.307 2.021-4.008 3.034a24.33 24.33 0 0 1-1.895 1.02 12.258 12.258 0 0 1-1.16-2.17z"/><path fill="#91D6EC" d="M43.316 38.2c1.822-.945 3.14-1.896 3.605-2.276l.74-.605.77.57c1.1.817 2.724 2 4.531 2.98 1.532.83 3.095 1.457 4.511 1.64a12.21 12.21 0 0 1-4.275 1.225c-.485-.221-.956-.46-1.407-.704-1.577-.855-3.008-1.84-4.085-2.622a27.21 27.21 0 0 1-2.31 1.46c-.754-.48-1.45-1.04-2.08-1.668z"/><path fill="#7A56A7" d="m60.93 28.272-3.517-4.88-1.966 2.729c.772.718 1.494 1.283 2.133 1.664.75.448 1.124.487 1.18.487h2.17z"/><path fill="#91AAEC" d="M-7.556 5.734 52 65.29 5.048 112.243l-59.556-59.556z"/><path fill="#7A56A7" d="M98.953-55.698 158.51 3.858 111.557 50.81 52-8.746z"/><path fill="#91D6EC" d="M-18.686 16.864 40.87 76.42 5.047 112.242l-59.556-59.556z"/><path fill="#9E91EC" d="M98.953-55.698 158.51 3.858l-35.65 35.65L63.305-20.05z"/></g><defs><clipPath id="a"><path fill="#fff" d="M0 0h104v59H0z"/></clipPath></defs></svg>