<svg xmlns="http://www.w3.org/2000/svg" viewBox="0 0 512 512"><path fill="#9e91ec" d="M42.785 248.79c15.414-9.731 30.281-21.36 44.278-33.958 38.261-34.434 66.476-72.906 76.519-87.977L180.5 101.48l18.035 24.594c19.352 26.387 49.426 65.211 82.672 97.258 16.621 16.023 33.512 29.84 49.762 39.543 16.441 9.813 30.664 14.48 42.363 14.48h94.945a212.282 212.282 0 0 1-8.718 42.668h-86.227c-22.43 0-44.387-8.664-64.234-20.515-20.04-11.965-39.547-28.149-57.504-45.457-26.653-25.696-51.04-55.004-69.918-79.422-15.461 20.098-38.262 46.89-66.07 71.918-19.97 17.973-43.376 35.812-69.204 49.414A214.49 214.49 0 0 1 42.668 256c0-2.414.039-4.82.117-7.21Zm0 0"/><path fill="#91aaec" d="M58.605 337.055c10.833-5.145 21.278-10.793 31.188-16.696 38.578-22.964 67.004-50.722 76.309-60.21l14.523-14.817 15.215 14.11c2.84 2.632 5.883 5.495 9.105 8.527 18.473 17.367 42.88 40.32 69.559 58.394 32.004 21.68 63.883 36.328 90.672 36.328h75.605a214.237 214.237 0 0 1-32.453 42.664h-43.152c-40.137 0-81.008-20.91-114.606-43.671-23.047-15.614-44.285-34.954-61.566-50.688-2.61-2.379-5.129-4.672-7.55-6.86l-.27.235c-15.829 13.863-40.043 35.074-69.563 52.652-10.246 6.094-21.258 12.106-32.89 17.7a212.45 212.45 0 0 1-20.126-37.668Zm0 0"/><path fill="#91d6ec" d="M105.29 406.988c31.62-16.398 54.483-32.91 62.554-39.492L180.707 357l13.336 9.89c19.102 14.169 47.289 34.712 78.656 51.712 26.594 14.414 53.707 25.285 78.293 28.468a211.912 211.912 0 0 1-74.207 21.262c-8.418-3.844-16.59-7.977-24.414-12.219-27.371-14.832-52.203-31.949-70.894-45.511-9.97 7.074-23.637 16.023-40.106 25.347a214.215 214.215 0 0 1-36.082-28.96Zm0 0"/><path fill="#7a56a7" d="m410.977 234.691-61.032-84.714-34.125 47.375c13.399 12.468 25.93 22.265 37.024 28.886 13.023 7.778 19.515 8.453 20.488 8.453Zm0 0"/></svg>