<svg xmlns="http://www.w3.org/2000/svg" xml:space="preserve" width="264.58334mm" height="122.76667mm" viewBox="0 0 264.58334 122.76667"><path d="M10.462 253.193c-1.128-.006-4.461-.107-4.9-.212a5.758 5.758 0 0 1-1.51-.656c-.39-.256-.859-.776-1.25-1.585-.392-.809-.543-1.545-.543-5.875s.144-5.038.596-5.93c.452-.892.843-1.318 1.521-1.71.678-.391 1.346-.546 5.71-.667 4.362-.12 5.025-.297 5.758-.794.733-.497 1.146-.905 1.7-1.696.552-.79.732-1.374.855-5.82.123-4.447.288-5.051.676-5.712.388-.66.77-1.078 1.428-1.521.658-.444 1.379-.597 5.277-.602 3.899-.005 4.717-.154 5.451-.49a6.758 6.758 0 0 0 1.914-1.362c.47-.484.997-1.25 1.278-1.986.282-.737.411-1.56.335-4.673-.076-3.112-.21-3.766-.885-4.855-.674-1.09-1.006-1.398-2.213-2.029-1.207-.63-1.599-.74-5.844-.74s-4.658-.152-5.327-.597c-.67-.444-1.058-.91-1.495-1.775-.437-.865-.26-3.566-.26-5.59 0-2.026.111-3.324-.335-4.413-.446-1.088-1.86-2.603-2.886-3.153-1.025-.55-1.512-.61-5.434-.61s-4.478-.107-5.448-.596c-.971-.49-1.283-.797-1.776-1.776-.494-.979-.595-1.698-.59-5.953.005-4.255.136-5.06.498-5.856.362-.797.724-1.228 1.516-1.72s2.15-.66 5.366-.726c3.216-.066 4.786-.023 5.51.086.725.108 1.546.516 2.201 1.108.655.591 1.15 1.354 1.3 1.898.152.545.27 2.453.27 5.147.002 2.694.135 4.434.376 4.895.242.46.772 1.095 1.257 1.56.486.466 1.238.995 1.866 1.257.629.263 1.544.41 4.402.41s3.65-.12 4.833-.739c1.183-.618 1.526-.918 2.213-2.028.687-1.11.802-1.435.93-6.074.128-4.638.293-5.01.768-5.675.474-.666.961-1.039 1.72-1.383.758-.345 2.34-.495 5.609-.499 3.268-.004 4.908.123 5.424.296.515.172 1.178.552 1.52.86.34.307.752.812.992 1.273.24.46.371 1.33.371 5.063 0 3.733.11 4.558.74 5.764.63 1.205.939 1.538 2.028 2.213 1.09.674 1.743.809 4.856.885 3.112.076 3.935-.054 4.672-.335a6.209 6.209 0 0 0 1.965-1.262c.472-.462 1.005-1.107 1.301-1.65.297-.542.46-1.442.576-5.572.116-4.13.295-4.988.77-5.653.474-.665.961-1.039 1.72-1.383.757-.345 2.439-.495 5.583-.499 3.145-.004 4.905.11 5.4.253.496.142 1.191.529 1.545.86.355.33.791.873 1.073 1.395.282.523.46 2.077.533 5.02.073 2.942.011 4.643-.204 5.605-.215.962-.118 1.091-1.353 2.323-1.234 1.23-2.872 1.068-6.225 1.176-3.353.109-5.294.333-6.086.887-.791.553-1.199.966-1.696 1.7-.497.732-.672 1.379-.793 5.758-.122 4.38-.288 5.047-.676 5.708-.389.661-.77 1.079-1.428 1.522-.658.443-1.375.597-5.278.602-3.903.005-4.715.153-5.45.491a6.48 6.48 0 0 0-1.811 1.245c-.414.418-.908 1.05-1.183 1.56s-.464 1.915-.53 4.117c-.066 2.201.03 3.797.205 4.447.175.65.744 1.617 1.282 2.213.538.597 1.302 1.233 2.036 1.567.734.334 1.556.483 5.451.488 3.895.005 4.624.159 5.292.603.668.444 1.06.915 1.494 1.776.435.86.596 1.968.596 5.364s.135 4.5.366 5.037c.23.537.826 1.29 1.389 1.828.562.537 1.358 1.102 1.767 1.257.41.154 2.63.28 4.944.28s4.534.126 4.944.28c.41.156 1.07.596 1.595 1.102.525.506.957 1.294 1.154 2.174.197.88.271 2.618.198 5.58-.073 2.962-.253 4.504-.553 5.062a4.75 4.75 0 0 1-1.15 1.388c-.385.304-1.154.674-1.765.839-.612.164-2.13.266-5.588.199s-4.783-.25-5.524-.71c-.74-.46-1.151-.917-1.521-1.643-.37-.725-.521-1.35-.521-5.234s-.095-4.396-.74-5.633c-.644-1.238-.85-1.325-2.17-2.28-1.32-.954-3.121-.874-5.16-.945-2.039-.071-3.707.074-5.16.946-1.452.871-1.524 1.037-2.17 2.279-.647 1.241-.74 1.603-.74 5.848 0 4.244-.152 4.654-.596 5.313-.444.658-.843 1.03-1.521 1.428-.679.399-1.522.544-6.085.544s-5.41-.138-5.998-.46c-.588-.321-.998-.681-1.455-1.322-.458-.642-.623-1.087-.749-5.627s-.31-5.064-.874-6.025c-.565-.96-1.01-1.44-1.832-1.984-.821-.544-1.362-.728-4.986-.807-3.624-.079-4.176.064-4.916.457-.739.394-1.21.696-1.447.883-.236.188-.593.583-1.124 1.366-.531.782-.696 2.033-.697 5.287-.001 3.255-.119 4.685-.262 5.2-.144.516-.664 1.33-1.157 1.807-.493.478-1.357.976-1.92 1.106-.564.131-3.999.223-5.126.217-1.128-.006 1.127.006 0 0zm32.46-16.641c1.032.002 3.944-.067 4.418-.247.474-.18 1.165-.704 1.777-1.257.612-.552 1.25-1.33 1.47-1.855.219-.524.356-1.63.356-4.655 0-3.025.459-2.951-.61-4.97-1.07-2.017-2.946-2.836-7.212-2.836-4.267 0-4.767.25-5.498.745-.73.495-1.155.924-1.699 1.72-.544.795-.746 1.973-.81 4.742-.066 2.769-.016 4.067.072 4.534.087.467.627 1.382 1.2 2.032.572.65 1.333 1.326 1.911 1.611.579.286 3.165.434 4.625.436 1.46.002-1.032-.001 0 0zm.372-32.605c2.007-.032 4.37-.237 5.159-.788.788-.551 1.194-.96 1.696-1.7.502-.742.661-1.121.661-5.382 0-4.261-.16-4.64-.661-5.382-.502-.741-.899-1.142-1.697-1.7-.799-.558-2.215-.761-5.445-.723-3.23.037-4.467.044-5.373.735-.905.69-1.141.968-1.699 1.698-.557.73-.77 2.496-.822 4.669-.05 2.172-.015 4.088.073 4.555.087.468.657 1.415 1.265 2.106.608.69 1.394 1.385 1.911 1.617.518.231 3.416.319 4.932.295 1.515-.024-2.008.032 0 0z" style="display:inline;fill:#000;stroke-width:.264583" transform="translate(17.849 -150.833)"/><path d="M164.115 189.529c-3.198 0-5.81 1.06-6.286 3.991-.127.802-.148 1.519.042 2.422.78 3.67 7.164 4.734 8.092 7.058.173.435.118.992.034 1.33-.148.599-.553 1.21-1.751 1.21-1.122 0-1.806-.65-1.806-1.628v-1.743h-4.822v1.384c0 4.008 3.151 5.22 6.53 5.22 3.25 0 5.925-1.106 6.35-4.106.22-1.553.06-2.57-.016-2.945-.76-3.764-7.578-4.886-8.088-6.99a2.303 2.303 0 0 1-.017-.946c.126-.578.519-1.207 1.641-1.207 1.055 0 1.667.65 1.667 1.629v1.114h4.485v-1.266c0-3.916-3.515-4.527-6.055-4.527zm-58.422.033c-3.198 0-5.81 1.06-6.286 3.992-.127.802-.148 1.519.042 2.422.78 3.67 7.164 4.733 8.092 7.058.173.435.118.992.034 1.33-.148.598-.553 1.21-1.75 1.21-1.123 0-1.807-.65-1.807-1.628v-1.743h-4.822v1.384c0 4.008 3.152 5.219 6.531 5.219 3.249 0 5.924-1.106 6.35-4.105.22-1.553.059-2.57-.017-2.945-.76-3.763-7.577-4.886-8.088-6.991a2.303 2.303 0 0 1-.017-.945c.126-.578.519-1.207 1.641-1.207 1.055 0 1.667.65 1.667 1.629v1.113h4.485v-1.265c0-3.915-3.515-4.528-6.055-4.528zm112.849.085c-3.186 0-5.907 1.08-6.308 4.443-.034.295-.076.86-.076 1.181v7.56c0 .338.013.583.063 1.182.3 3.274 3.135 4.443 6.32 4.443 3.186 0 6.025-1.169 6.32-4.443.056-.599.064-.844.064-1.181v-4.818h-6.367v2.615h1.844v2.616c0 .224-.004.477-.042.675-.08.485-.536 1.308-1.835 1.308-1.3 0-1.756-.823-1.84-1.304a4.442 4.442 0 0 1-.042-.683v-8.215c0-.291.021-.612.076-.848.097-.443.48-1.308 1.789-1.308 1.375 0 1.713.912 1.797 1.308.055.262.055.684.055.684v1.008h4.531v-.603s.018-.608-.041-1.181c-.33-3.367-3.123-4.439-6.308-4.439zm-92.112.485-7.995.004-3.333 17.97h4.856l2.46-16.308h.101l2.392 16.307h4.831zm26.48 0-7.325.004-2.215 13.738h-.106l-2.21-13.738h-7.33l-.396 17.97h4.498l.11-16.156h.101l3 16.155h4.56l3.004-16.15h.097l.115 16.15h4.493zm21.82 0v12.885c-.003.33.03 1.005.042 1.182.317 3.354 2.967 4.442 6.274 4.442 3.304 0 5.953-1.088 6.27-4.442.029-.393.043-.787.042-1.182v-12.88h-4.548v13.29c0 .232-.004.493-.042.687-.089.44-.473 1.3-1.722 1.3-1.253 0-1.64-.86-1.725-1.3a3.586 3.586 0 0 1-.042-.691v-13.29zm17.636.004v17.78h4.417l-.244-14.594h.097l4.434 14.594h6.4v-17.78h-4.45l.244 14.104h-.097l-4.135-14.104zm-92.338 25.762v15.892h9.426v-2.83h-6.465v-3.744h6.465v-2.831h-6.465v-3.657h6.465v-2.83zm69.71 2.873c-.762 0-1.437.109-2.046.305-.632.217-1.155.5-1.59.87a4.142 4.142 0 0 0-1.001 1.242c-.24.479-.37.98-.37 1.48 0 .675.13 1.22.392 1.655.26.457.609.805 1.023 1.088.413.283.892.523 1.436.675.523.153 1.067.305 1.612.414.392.087.762.174 1.132.24.37.065.675.152.958.26.26.11.479.24.653.392a.758.758 0 0 1 .239.567c0 .413-.174.783-.544 1.088-.37.305-.914.457-1.633.457-.697 0-1.306-.152-1.829-.479a3.449 3.449 0 0 1-1.24-1.371l-2.722 1.306c.5 1.001 1.22 1.764 2.156 2.286.936.544 2.09.805 3.505.805.914 0 1.697-.13 2.35-.392a5.096 5.096 0 0 0 1.634-1.023c.413-.413.74-.849.936-1.35.195-.478.305-.935.305-1.393 0-.675-.131-1.22-.392-1.676a3.633 3.633 0 0 0-1.067-1.088 6.222 6.222 0 0 0-1.437-.675 24.108 24.108 0 0 0-1.59-.392c-.957-.196-1.676-.392-2.176-.588-.501-.175-.74-.48-.74-.893 0-.37.173-.675.5-.958.327-.283.85-.413 1.546-.413.61 0 1.154.13 1.61.391.458.262.828.61 1.09 1.067l2.503-1.263a5.517 5.517 0 0 0-2.003-1.937c-.85-.457-1.916-.697-3.2-.697zm-25.472.022c-.828 0-1.568.174-2.199.5a4.594 4.594 0 0 0-1.61 1.329v-1.568h-2.918v12.736h2.939v-6.988c0-1.11.283-1.982.87-2.57.567-.587 1.263-.892 2.112-.892.958 0 1.677.283 2.156.85.478.587.718 1.37.718 2.35v7.25h2.983v-7.554c0-1.72-.436-3.048-1.328-4.006-.893-.958-2.134-1.437-3.723-1.437zm12.932 0c-.914 0-1.764.174-2.57.5a6.787 6.787 0 0 0-2.11 1.416 6.606 6.606 0 0 0-1.394 2.111 6.511 6.511 0 0 0-.523 2.613c0 .914.175 1.764.523 2.57a6.376 6.376 0 0 0 1.393 2.11 6.111 6.111 0 0 0 2.112 1.416 6.378 6.378 0 0 0 2.569.522c.914 0 1.763-.174 2.569-.522a6.322 6.322 0 0 0 2.112-1.415 6.787 6.787 0 0 0 1.415-2.112c.326-.805.5-1.655.5-2.569 0-.936-.174-1.807-.5-2.613a7.05 7.05 0 0 0-1.415-2.111 7.05 7.05 0 0 0-2.112-1.415 6.753 6.753 0 0 0-2.57-.501zm-47.047.26 4.615 6.25-4.79 6.487h3.593l3.026-4.245 3.114 4.245h3.592l-4.877-6.444 4.572-6.292h-3.484l-2.873 4.05-2.896-4.05zm13.215 0 5.225 12.106-2.678 6.509h2.983l7.598-18.614h-3.092l-3.352 8.578-3.549-8.578zm33.832 2.505c.522 0 1.001.109 1.458.305.458.196.85.479 1.176.827.327.348.588.762.784 1.22.196.478.283.979.283 1.523 0 .523-.087 1.023-.283 1.48a4.017 4.017 0 0 1-.784 1.241 3.485 3.485 0 0 1-1.176.827 3.646 3.646 0 0 1-2.917 0 3.485 3.485 0 0 1-1.175-.827 4.017 4.017 0 0 1-.784-1.24 3.737 3.737 0 0 1-.283-1.481c0-.544.087-1.045.283-1.524a4.18 4.18 0 0 1 .784-1.219 3.485 3.485 0 0 1 1.175-.827 3.646 3.646 0 0 1 1.459-.305z" style="opacity:1;fill:#000;stroke-width:.42191" transform="translate(17.849 -150.833)"/></svg>