<?xml version="1.0" encoding="UTF-8"?>
<svg xmlns="http://www.w3.org/2000/svg" xmlns:xlink="http://www.w3.org/1999/xlink" width="128px" height="128px" viewBox="-20 -20 168 168" version="1.1">
<path style=" stroke:none;fill-rule:nonzero;fill:rgb(12.156863%,12.156863%,12.156863%);fill-opacity:1;" d="M 64 117.332031 C 56.535156 117.332031 49.554688 115.933594 43.066406 113.132812 C 36.578125 110.332031 30.933594 106.535156 26.132812 101.734375 C 21.332031 96.933594 17.554688 91.265625 14.800781 84.734375 C 12.042969 78.199219 10.667969 71.199219 10.667969 63.734375 C 10.667969 56.265625 12.042969 49.3125 14.800781 42.867188 C 17.554688 36.421875 21.332031 30.800781 26.132812 26 C 30.933594 21.199219 36.578125 17.445312 43.066406 14.734375 C 49.554688 12.023438 56.535156 10.667969 64 10.667969 C 71.464844 10.667969 78.445312 12.023438 84.933594 14.734375 C 91.421875 17.445312 97.066406 21.199219 101.867188 26 C 106.667969 30.800781 110.445312 36.421875 113.199219 42.867188 C 115.957031 49.3125 117.332031 56.265625 117.332031 63.734375 C 117.332031 71.199219 115.957031 78.199219 113.199219 84.734375 C 110.445312 91.265625 106.667969 96.933594 101.867188 101.734375 C 97.066406 106.535156 91.421875 110.332031 84.933594 113.132812 C 78.445312 115.933594 71.464844 117.332031 64 117.332031 Z M 64 109.601562 C 67.109375 106.398438 69.710938 102.734375 71.800781 98.601562 C 73.890625 94.464844 75.601562 89.554688 76.933594 83.867188 L 51.199219 83.867188 C 52.445312 89.199219 54.109375 94 56.199219 98.265625 C 58.289062 102.535156 60.890625 106.3125 64 109.601562 Z M 52.667969 108 C 50.445312 104.621094 48.535156 100.976562 46.933594 97.066406 C 45.332031 93.15625 44 88.753906 42.933594 83.867188 L 22.933594 83.867188 C 26.3125 90.179688 30.222656 95.132812 34.667969 98.734375 C 39.109375 102.332031 45.109375 105.421875 52.667969 108 Z M 75.464844 107.867188 C 81.867188 105.820312 87.621094 102.753906 92.734375 98.667969 C 97.84375 94.578125 101.957031 89.644531 105.066406 83.867188 L 85.199219 83.867188 C 84.042969 88.667969 82.6875 93.023438 81.132812 96.933594 C 79.578125 100.84375 77.6875 104.488281 75.464844 107.867188 Z M 20.265625 75.867188 L 41.464844 75.867188 C 41.199219 73.464844 41.042969 71.3125 41 69.398438 C 40.957031 67.488281 40.933594 65.601562 40.933594 63.734375 C 40.933594 61.511719 40.976562 59.535156 41.066406 57.800781 C 41.15625 56.066406 41.332031 54.132812 41.601562 52 L 20.265625 52 C 19.644531 54.132812 19.222656 56.042969 19 57.734375 C 18.777344 59.421875 18.667969 61.421875 18.667969 63.734375 C 18.667969 66.042969 18.777344 68.109375 19 69.933594 C 19.222656 71.753906 19.644531 73.734375 20.265625 75.867188 Z M 49.734375 75.867188 L 78.398438 75.867188 C 78.753906 73.109375 78.976562 70.867188 79.066406 69.132812 C 79.15625 67.398438 79.199219 65.601562 79.199219 63.734375 C 79.199219 61.957031 79.15625 60.246094 79.066406 58.601562 C 78.976562 56.957031 78.753906 54.753906 78.398438 52 L 49.734375 52 C 49.378906 54.753906 49.15625 56.957031 49.066406 58.601562 C 48.976562 60.246094 48.933594 61.957031 48.933594 63.734375 C 48.933594 65.601562 48.976562 67.398438 49.066406 69.132812 C 49.15625 70.867188 49.378906 73.109375 49.734375 75.867188 Z M 86.398438 75.867188 L 107.734375 75.867188 C 108.355469 73.734375 108.777344 71.753906 109 69.933594 C 109.222656 68.109375 109.332031 66.042969 109.332031 63.734375 C 109.332031 61.421875 109.222656 59.421875 109 57.734375 C 108.777344 56.042969 108.355469 54.132812 107.734375 52 L 86.535156 52 C 86.800781 55.109375 86.976562 57.488281 87.066406 59.132812 C 87.15625 60.777344 87.199219 62.3125 87.199219 63.734375 C 87.199219 65.6875 87.132812 67.535156 87 69.265625 C 86.867188 71 86.667969 73.199219 86.398438 75.867188 Z M 85.066406 44 L 105.066406 44 C 102.132812 37.867188 98.109375 32.753906 93 28.667969 C 87.890625 24.578125 82 21.6875 75.332031 20 C 77.554688 23.289062 79.445312 26.84375 81 30.667969 C 82.554688 34.488281 83.910156 38.933594 85.066406 44 Z M 51.199219 44 L 77.066406 44 C 76.089844 39.289062 74.445312 34.734375 72.132812 30.332031 C 69.820312 25.933594 67.109375 22.042969 64 18.667969 C 61.15625 21.066406 58.753906 24.222656 56.800781 28.132812 C 54.84375 32.042969 52.976562 37.332031 51.199219 44 Z M 22.933594 44 L 43.066406 44 C 44.042969 39.199219 45.289062 34.910156 46.800781 31.132812 C 48.3125 27.355469 50.222656 23.6875 52.535156 20.132812 C 45.867188 21.820312 40.042969 24.667969 35.066406 28.667969 C 30.089844 32.667969 26.042969 37.777344 22.933594 44 Z M 22.933594 44 "/>
</svg>
