<svg xmlns="http://www.w3.org/2000/svg" viewBox="0 0 750 500"><g id="freepik--background-complete--inject-19"><path d="M592.33,197.15a5,5,0,0,1,2.15-.25l.72,0-.23.23c0-.83.12-1.42.23-1.42s.2.59.23,1.42v.23h-1A4.8,4.8,0,0,1,592.33,197.15Z" style="fill:#e0e0e0"></path><path d="M586.6,197.15c0-.13.64-.25,1.43-.25s1.43.12,1.43.25-.64.25-1.43.25S586.6,197.29,586.6,197.15Z" style="fill:#e0e0e0"></path><path d="M580.86,197.15c0-.13.64-.25,1.43-.25s1.44.12,1.44.25-.64.25-1.44.25S580.86,197.29,580.86,197.15Z" style="fill:#e0e0e0"></path><path d="M575.13,197.15c0-.13.64-.25,1.43-.25s1.43.12,1.43.25-.64.25-1.43.25S575.13,197.29,575.13,197.15Z" style="fill:#e0e0e0"></path><path d="M569.39,197.15c0-.13.64-.25,1.43-.25s1.44.12,1.44.25-.64.25-1.44.25S569.39,197.29,569.39,197.15Z" style="fill:#e0e0e0"></path><path d="M563.65,197.15c0-.13.65-.25,1.44-.25s1.43.12,1.43.25-.64.25-1.43.25S563.65,197.29,563.65,197.15Z" style="fill:#e0e0e0"></path><path d="M557.92,197.15c0-.13.64-.25,1.43-.25s1.44.12,1.44.25-.65.25-1.44.25S557.92,197.29,557.92,197.15Z" style="fill:#e0e0e0"></path><path d="M552.18,197.15c0-.13.64-.25,1.44-.25s1.43.12,1.43.25-.64.25-1.43.25S552.18,197.29,552.18,197.15Z" style="fill:#e0e0e0"></path><path d="M546.45,197.15c0-.13.64-.25,1.43-.25s1.43.12,1.43.25-.64.25-1.43.25S546.45,197.29,546.45,197.15Z" style="fill:#e0e0e0"></path><path d="M540.71,197.15c0-.13.64-.25,1.44-.25s1.43.12,1.43.25-.64.25-1.43.25S540.71,197.29,540.71,197.15Z" style="fill:#e0e0e0"></path><path d="M535,197.15c0-.13.64-.25,1.43-.25s1.43.12,1.43.25-.64.25-1.43.25S535,197.29,535,197.15Z" style="fill:#e0e0e0"></path><path d="M529.24,197.15c0-.13.64-.25,1.43-.25s1.44.12,1.44.25-.64.25-1.44.25S529.24,197.29,529.24,197.15Z" style="fill:#e0e0e0"></path><path d="M523.5,197.15c0-.13.65-.25,1.44-.25s1.43.12,1.43.25-.64.25-1.43.25S523.5,197.29,523.5,197.15Z" style="fill:#e0e0e0"></path><path d="M517.77,197.15c0-.13.64-.25,1.43-.25s1.44.12,1.44.25-.65.25-1.44.25S517.77,197.29,517.77,197.15Z" style="fill:#e0e0e0"></path><path d="M512,197.15c0-.13.65-.25,1.44-.25s1.43.12,1.43.25-.64.25-1.43.25S512,197.29,512,197.15Z" style="fill:#e0e0e0"></path><path d="M506.3,197.15c0-.13.64-.25,1.43-.25s1.44.12,1.44.25-.65.25-1.44.25S506.3,197.29,506.3,197.15Z" style="fill:#e0e0e0"></path><path d="M500.56,197.15c0-.13.64-.25,1.44-.25s1.43.12,1.43.25-.64.25-1.43.25S500.56,197.29,500.56,197.15Z" style="fill:#e0e0e0"></path><path d="M494.83,197.15c0-.13.64-.25,1.43-.25s1.43.12,1.43.25-.64.25-1.43.25S494.83,197.29,494.83,197.15Z" style="fill:#e0e0e0"></path><path d="M493,193.21c.13,0,.25.64.25,1.43s-.12,1.44-.25,1.44-.25-.65-.25-1.44S492.9,193.21,493,193.21Z" style="fill:#e0e0e0"></path><path d="M493,187.47c.13,0,.25.64.25,1.44s-.12,1.43-.25,1.43-.25-.64-.25-1.43S492.9,187.47,493,187.47Z" style="fill:#e0e0e0"></path><path d="M493,181.74c.13,0,.25.64.25,1.43s-.12,1.43-.25,1.43-.25-.64-.25-1.43S492.9,181.74,493,181.74Z" style="fill:#e0e0e0"></path><path d="M493,176c.13,0,.25.64.25,1.43s-.12,1.44-.25,1.44-.25-.64-.25-1.44S492.9,176,493,176Z" style="fill:#e0e0e0"></path><path d="M493,170.26c.13,0,.25.65.25,1.44s-.12,1.43-.25,1.43-.25-.64-.25-1.43S492.9,170.26,493,170.26Z" style="fill:#e0e0e0"></path><path d="M493,164.53c.13,0,.25.64.25,1.43s-.12,1.44-.25,1.44-.25-.64-.25-1.44S492.9,164.53,493,164.53Z" style="fill:#e0e0e0"></path><path d="M493,158.79c.13,0,.25.65.25,1.44s-.12,1.43-.25,1.43-.25-.64-.25-1.43S492.9,158.79,493,158.79Z" style="fill:#e0e0e0"></path><path d="M493,153.06c.13,0,.25.64.25,1.43s-.12,1.44-.25,1.44-.25-.65-.25-1.44S492.9,153.06,493,153.06Z" style="fill:#e0e0e0"></path><path d="M493,147.32c.13,0,.25.64.25,1.44s-.12,1.43-.25,1.43-.25-.64-.25-1.43S492.9,147.32,493,147.32Z" style="fill:#e0e0e0"></path><path d="M493,141.59c.13,0,.25.64.25,1.43s-.12,1.43-.25,1.43-.25-.64-.25-1.43S492.9,141.59,493,141.59Z" style="fill:#e0e0e0"></path><path d="M493,135.85c.13,0,.25.64.25,1.44s-.12,1.43-.25,1.43-.25-.64-.25-1.43S492.9,135.85,493,135.85Z" style="fill:#e0e0e0"></path><path d="M493,130.12c.13,0,.25.64.25,1.43S493.17,133,493,133s-.25-.64-.25-1.43S492.9,130.12,493,130.12Z" style="fill:#e0e0e0"></path><path d="M493,124.38c.13,0,.25.64.25,1.43s-.12,1.44-.25,1.44-.25-.64-.25-1.44S492.9,124.38,493,124.38Z" style="fill:#e0e0e0"></path><path d="M493,118.64c.13,0,.25.65.25,1.44s-.12,1.43-.25,1.43-.25-.64-.25-1.43S492.9,118.64,493,118.64Z" style="fill:#e0e0e0"></path><path d="M493,112.91c.13,0,.25.64.25,1.43s-.12,1.44-.25,1.44-.25-.65-.25-1.44S492.9,112.91,493,112.91Z" style="fill:#e0e0e0"></path><path d="M493,107.17c.13,0,.25.65.25,1.44S493.17,110,493,110s-.25-.64-.25-1.43S492.9,107.17,493,107.17Z" style="fill:#e0e0e0"></path><path d="M493,101.44c.13,0,.25.64.25,1.43s-.12,1.44-.25,1.44-.25-.65-.25-1.44S492.9,101.44,493,101.44Z" style="fill:#e0e0e0"></path><path d="M493,95.7c.13,0,.25.64.25,1.44s-.12,1.43-.25,1.43-.25-.64-.25-1.43S492.9,95.7,493,95.7Z" style="fill:#e0e0e0"></path><path d="M498.06,95c0,.14-.64.25-1.43.25s-1.44-.11-1.44-.25.64-.25,1.44-.25S498.06,94.85,498.06,95Z" style="fill:#e0e0e0"></path><path d="M503.8,95c0,.14-.65.25-1.44.25s-1.43-.11-1.43-.25.64-.25,1.43-.25S503.8,94.85,503.8,95Z" style="fill:#e0e0e0"></path><path d="M509.53,95c0,.14-.64.25-1.43.25s-1.44-.11-1.44-.25.65-.25,1.44-.25S509.53,94.85,509.53,95Z" style="fill:#e0e0e0"></path><ellipse cx="513.83" cy="94.99" rx="1.43" ry="0.25" style="fill:#e0e0e0"></ellipse><path d="M521,95c0,.14-.64.25-1.43.25s-1.43-.11-1.43-.25.64-.25,1.43-.25S521,94.85,521,95Z" style="fill:#e0e0e0"></path><path d="M526.74,95c0,.14-.64.25-1.44.25s-1.43-.11-1.43-.25.64-.25,1.43-.25S526.74,94.85,526.74,95Z" style="fill:#e0e0e0"></path><path d="M532.47,95c0,.14-.64.25-1.43.25s-1.43-.11-1.43-.25.64-.25,1.43-.25S532.47,94.85,532.47,95Z" style="fill:#e0e0e0"></path><path d="M538.21,95c0,.14-.64.25-1.43.25s-1.44-.11-1.44-.25.64-.25,1.44-.25S538.21,94.85,538.21,95Z" style="fill:#e0e0e0"></path><path d="M544,95c0,.14-.65.25-1.44.25s-1.43-.11-1.43-.25.64-.25,1.43-.25S544,94.85,544,95Z" style="fill:#e0e0e0"></path><path d="M549.68,95c0,.14-.64.25-1.43.25s-1.44-.11-1.44-.25.64-.25,1.44-.25S549.68,94.85,549.68,95Z" style="fill:#e0e0e0"></path><path d="M555.42,95c0,.14-.65.25-1.44.25s-1.43-.11-1.43-.25.64-.25,1.43-.25S555.42,94.85,555.42,95Z" style="fill:#e0e0e0"></path><path d="M561.15,95c0,.14-.64.25-1.43.25s-1.44-.11-1.44-.25.65-.25,1.44-.25S561.15,94.85,561.15,95Z" style="fill:#e0e0e0"></path><path d="M566.89,95c0,.14-.64.25-1.44.25S564,95.13,564,95s.64-.25,1.43-.25S566.89,94.85,566.89,95Z" style="fill:#e0e0e0"></path><path d="M572.62,95c0,.14-.64.25-1.43.25s-1.43-.11-1.43-.25.64-.25,1.43-.25S572.62,94.85,572.62,95Z" style="fill:#e0e0e0"></path><path d="M578.36,95c0,.14-.64.25-1.43.25s-1.44-.11-1.44-.25.64-.25,1.44-.25S578.36,94.85,578.36,95Z" style="fill:#e0e0e0"></path><path d="M584.09,95c0,.14-.64.25-1.43.25s-1.43-.11-1.43-.25.64-.25,1.43-.25S584.09,94.85,584.09,95Z" style="fill:#e0e0e0"></path><path d="M589.83,95c0,.14-.64.25-1.43.25S587,95.13,587,95s.64-.25,1.44-.25S589.83,94.85,589.83,95Z" style="fill:#e0e0e0"></path><path d="M595.2,95.36c-.06,0-.12-.14-.17-.37l.17.17a6.07,6.07,0,0,1-1.07.08c-.79,0-1.43-.11-1.43-.25s.64-.25,1.43-.25a6.07,6.07,0,0,1,1.07.08l.19,0,0,.13C595.32,95.22,595.26,95.36,595.2,95.36Z" style="fill:#e0e0e0"></path><path d="M595.2,101.09c-.14,0-.25-.64-.25-1.43s.11-1.44.25-1.44.25.65.25,1.44S595.34,101.09,595.2,101.09Z" style="fill:#e0e0e0"></path><path d="M595.2,106.83c-.14,0-.25-.64-.25-1.44s.11-1.43.25-1.43.25.64.25,1.43S595.34,106.83,595.2,106.83Z" style="fill:#e0e0e0"></path><path d="M595.2,112.56c-.14,0-.25-.64-.25-1.43s.11-1.43.25-1.43.25.64.25,1.43S595.34,112.56,595.2,112.56Z" style="fill:#e0e0e0"></path><path d="M595.2,118.3c-.14,0-.25-.64-.25-1.44s.11-1.43.25-1.43.25.64.25,1.43S595.34,118.3,595.2,118.3Z" style="fill:#e0e0e0"></path><path d="M595.2,124c-.14,0-.25-.64-.25-1.43s.11-1.43.25-1.43.25.64.25,1.43S595.34,124,595.2,124Z" style="fill:#e0e0e0"></path><path d="M595.2,129.77c-.14,0-.25-.64-.25-1.43s.11-1.44.25-1.44.25.64.25,1.44S595.34,129.77,595.2,129.77Z" style="fill:#e0e0e0"></path><path d="M595.2,135.51c-.14,0-.25-.65-.25-1.44s.11-1.43.25-1.43.25.64.25,1.43S595.34,135.51,595.2,135.51Z" style="fill:#e0e0e0"></path><path d="M595.2,141.24c-.14,0-.25-.64-.25-1.43s.11-1.44.25-1.44.25.65.25,1.44S595.34,141.24,595.2,141.24Z" style="fill:#e0e0e0"></path><path d="M595.2,147c-.14,0-.25-.65-.25-1.44s.11-1.43.25-1.43.25.64.25,1.43S595.34,147,595.2,147Z" style="fill:#e0e0e0"></path><path d="M595.2,152.71c-.14,0-.25-.64-.25-1.43s.11-1.44.25-1.44.25.65.25,1.44S595.34,152.71,595.2,152.71Z" style="fill:#e0e0e0"></path><path d="M595.2,158.45c-.14,0-.25-.64-.25-1.44s.11-1.43.25-1.43.25.64.25,1.43S595.34,158.45,595.2,158.45Z" style="fill:#e0e0e0"></path><path d="M595.2,164.18c-.14,0-.25-.64-.25-1.43s.11-1.43.25-1.43.25.64.25,1.43S595.34,164.18,595.2,164.18Z" style="fill:#e0e0e0"></path><path d="M595.2,169.92c-.14,0-.25-.64-.25-1.43s.11-1.44.25-1.44.25.64.25,1.44S595.34,169.92,595.2,169.92Z" style="fill:#e0e0e0"></path><path d="M595.2,175.65c-.14,0-.25-.64-.25-1.43s.11-1.43.25-1.43.25.64.25,1.43S595.34,175.65,595.2,175.65Z" style="fill:#e0e0e0"></path><path d="M595.2,181.39c-.14,0-.25-.64-.25-1.43s.11-1.44.25-1.44.25.64.25,1.44S595.34,181.39,595.2,181.39Z" style="fill:#e0e0e0"></path><path d="M595.2,187.13c-.14,0-.25-.65-.25-1.44s.11-1.43.25-1.43.25.64.25,1.43S595.34,187.13,595.2,187.13Z" style="fill:#e0e0e0"></path><path d="M595.2,192.86c-.14,0-.25-.64-.25-1.43s.11-1.44.25-1.44.25.65.25,1.44S595.34,192.86,595.2,192.86Z" style="fill:#e0e0e0"></path><rect x="591.42" y="192.33" width="7.57" height="7.57" style="fill:#e0e0e0"></rect><rect x="489.25" y="193.37" width="7.57" height="7.57" style="fill:#e0e0e0"></rect><rect x="591.42" y="90.47" width="7.57" height="7.57" style="fill:#e0e0e0"></rect><rect x="489.25" y="91.21" width="7.57" height="7.57" style="fill:#e0e0e0"></rect><path d="M184.65,154.14a4.8,4.8,0,0,1,2.15-.25h.72l-.23.24c0-.84.12-1.43.23-1.43s.2.59.24,1.43v.23h-.25l-.72,0A5,5,0,0,1,184.65,154.14Z" style="fill:#e0e0e0"></path><path d="M178.92,154.14c0-.14.64-.25,1.43-.25s1.44.11,1.44.25-.65.25-1.44.25S178.92,154.27,178.92,154.14Z" style="fill:#e0e0e0"></path><path d="M173.18,154.14c0-.14.64-.25,1.44-.25s1.43.11,1.43.25-.64.25-1.43.25S173.18,154.27,173.18,154.14Z" style="fill:#e0e0e0"></path><path d="M167.45,154.14c0-.14.64-.25,1.43-.25s1.43.11,1.43.25-.64.25-1.43.25S167.45,154.27,167.45,154.14Z" style="fill:#e0e0e0"></path><path d="M161.71,154.14c0-.14.64-.25,1.43-.25s1.44.11,1.44.25-.64.25-1.44.25S161.71,154.27,161.71,154.14Z" style="fill:#e0e0e0"></path><path d="M156,154.14c0-.14.64-.25,1.43-.25s1.43.11,1.43.25-.64.25-1.43.25S156,154.27,156,154.14Z" style="fill:#e0e0e0"></path><path d="M150.24,154.14c0-.14.64-.25,1.43-.25s1.44.11,1.44.25-.64.25-1.44.25S150.24,154.27,150.24,154.14Z" style="fill:#e0e0e0"></path><path d="M144.5,154.14c0-.14.65-.25,1.44-.25s1.43.11,1.43.25-.64.25-1.43.25S144.5,154.27,144.5,154.14Z" style="fill:#e0e0e0"></path><path d="M138.77,154.14c0-.14.64-.25,1.43-.25s1.44.11,1.44.25-.65.25-1.44.25S138.77,154.27,138.77,154.14Z" style="fill:#e0e0e0"></path><path d="M133,154.14c0-.14.65-.25,1.44-.25s1.43.11,1.43.25-.64.25-1.43.25S133,154.27,133,154.14Z" style="fill:#e0e0e0"></path><path d="M127.3,154.14c0-.14.64-.25,1.43-.25s1.44.11,1.44.25-.65.25-1.44.25S127.3,154.27,127.3,154.14Z" style="fill:#e0e0e0"></path><path d="M121.56,154.14c0-.14.64-.25,1.44-.25s1.43.11,1.43.25-.64.25-1.43.25S121.56,154.27,121.56,154.14Z" style="fill:#e0e0e0"></path><path d="M115.83,154.14c0-.14.64-.25,1.43-.25s1.43.11,1.43.25-.64.25-1.43.25S115.83,154.27,115.83,154.14Z" style="fill:#e0e0e0"></path><path d="M110.09,154.14c0-.14.64-.25,1.43-.25s1.44.11,1.44.25-.64.25-1.44.25S110.09,154.27,110.09,154.14Z" style="fill:#e0e0e0"></path><path d="M104.36,154.14c0-.14.64-.25,1.43-.25s1.43.11,1.43.25-.64.25-1.43.25S104.36,154.27,104.36,154.14Z" style="fill:#e0e0e0"></path><path d="M98.62,154.14c0-.14.64-.25,1.43-.25s1.44.11,1.44.25-.64.25-1.44.25S98.62,154.27,98.62,154.14Z" style="fill:#e0e0e0"></path><path d="M92.88,154.14c0-.14.65-.25,1.44-.25s1.43.11,1.43.25-.64.25-1.43.25S92.88,154.27,92.88,154.14Z" style="fill:#e0e0e0"></path><path d="M87.15,154.14c0-.14.64-.25,1.43-.25s1.44.11,1.44.25-.65.25-1.44.25S87.15,154.27,87.15,154.14Z" style="fill:#e0e0e0"></path><path d="M85.36,150.19c.14,0,.25.64.25,1.43s-.11,1.44-.25,1.44-.25-.64-.25-1.44S85.22,150.19,85.36,150.19Z" style="fill:#e0e0e0"></path><path d="M85.36,144.45c.14,0,.25.65.25,1.44s-.11,1.43-.25,1.43-.25-.64-.25-1.43S85.22,144.45,85.36,144.45Z" style="fill:#e0e0e0"></path><path d="M85.36,138.72c.14,0,.25.64.25,1.43s-.11,1.44-.25,1.44-.25-.64-.25-1.44S85.22,138.72,85.36,138.72Z" style="fill:#e0e0e0"></path><path d="M85.36,133c.14,0,.25.65.25,1.44s-.11,1.43-.25,1.43-.25-.64-.25-1.43S85.22,133,85.36,133Z" style="fill:#e0e0e0"></path><path d="M85.36,127.25c.14,0,.25.64.25,1.43s-.11,1.44-.25,1.44-.25-.65-.25-1.44S85.22,127.25,85.36,127.25Z" style="fill:#e0e0e0"></path><path d="M85.36,121.51c.14,0,.25.64.25,1.44s-.11,1.43-.25,1.43-.25-.64-.25-1.43S85.22,121.51,85.36,121.51Z" style="fill:#e0e0e0"></path><path d="M85.36,115.78c.14,0,.25.64.25,1.43s-.11,1.43-.25,1.43-.25-.64-.25-1.43S85.22,115.78,85.36,115.78Z" style="fill:#e0e0e0"></path><path d="M85.36,110c.14,0,.25.64.25,1.44s-.11,1.43-.25,1.43-.25-.64-.25-1.43S85.22,110,85.36,110Z" style="fill:#e0e0e0"></path><path d="M85.36,104.31c.14,0,.25.64.25,1.43s-.11,1.43-.25,1.43-.25-.64-.25-1.43S85.22,104.31,85.36,104.31Z" style="fill:#e0e0e0"></path><path d="M85.36,98.57c.14,0,.25.64.25,1.43s-.11,1.44-.25,1.44-.25-.64-.25-1.44S85.22,98.57,85.36,98.57Z" style="fill:#e0e0e0"></path><path d="M85.36,92.83c.14,0,.25.65.25,1.44s-.11,1.43-.25,1.43-.25-.64-.25-1.43S85.22,92.83,85.36,92.83Z" style="fill:#e0e0e0"></path><path d="M85.36,87.1c.14,0,.25.64.25,1.43S85.5,90,85.36,90s-.25-.65-.25-1.44S85.22,87.1,85.36,87.1Z" style="fill:#e0e0e0"></path><path d="M85.36,81.36c.14,0,.25.65.25,1.44s-.11,1.43-.25,1.43-.25-.64-.25-1.43S85.22,81.36,85.36,81.36Z" style="fill:#e0e0e0"></path><path d="M85.36,75.63c.14,0,.25.64.25,1.43s-.11,1.44-.25,1.44-.25-.65-.25-1.44S85.22,75.63,85.36,75.63Z" style="fill:#e0e0e0"></path><path d="M85.36,69.89c.14,0,.25.64.25,1.44s-.11,1.43-.25,1.43-.25-.64-.25-1.43S85.22,69.89,85.36,69.89Z" style="fill:#e0e0e0"></path><path d="M85.36,64.16c.14,0,.25.64.25,1.43S85.5,67,85.36,67s-.25-.64-.25-1.43S85.22,64.16,85.36,64.16Z" style="fill:#e0e0e0"></path><path d="M85.36,58.42c.14,0,.25.64.25,1.43s-.11,1.44-.25,1.44-.25-.64-.25-1.44S85.22,58.42,85.36,58.42Z" style="fill:#e0e0e0"></path><path d="M85.36,52.69c.14,0,.25.64.25,1.43s-.11,1.43-.25,1.43-.25-.64-.25-1.43S85.22,52.69,85.36,52.69Z" style="fill:#e0e0e0"></path><path d="M90.38,52c0,.14-.64.25-1.43.25s-1.44-.11-1.44-.25.65-.25,1.44-.25S90.38,51.84,90.38,52Z" style="fill:#e0e0e0"></path><path d="M96.12,52c0,.14-.64.25-1.44.25s-1.43-.11-1.43-.25.64-.25,1.43-.25S96.12,51.84,96.12,52Z" style="fill:#e0e0e0"></path><path d="M101.85,52c0,.14-.64.25-1.43.25S99,52.11,99,52s.64-.25,1.43-.25S101.85,51.84,101.85,52Z" style="fill:#e0e0e0"></path><ellipse cx="106.16" cy="51.97" rx="1.43" ry="0.25" style="fill:#e0e0e0"></ellipse><path d="M113.32,52c0,.14-.64.25-1.43.25s-1.43-.11-1.43-.25.64-.25,1.43-.25S113.32,51.84,113.32,52Z" style="fill:#e0e0e0"></path><path d="M119.06,52c0,.14-.64.25-1.43.25s-1.44-.11-1.44-.25.64-.25,1.44-.25S119.06,51.84,119.06,52Z" style="fill:#e0e0e0"></path><path d="M124.8,52c0,.14-.65.25-1.44.25s-1.43-.11-1.43-.25.64-.25,1.43-.25S124.8,51.84,124.8,52Z" style="fill:#e0e0e0"></path><path d="M130.53,52c0,.14-.64.25-1.43.25s-1.44-.11-1.44-.25.65-.25,1.44-.25S130.53,51.84,130.53,52Z" style="fill:#e0e0e0"></path><path d="M136.27,52c0,.14-.65.25-1.44.25s-1.43-.11-1.43-.25.64-.25,1.43-.25S136.27,51.84,136.27,52Z" style="fill:#e0e0e0"></path><path d="M142,52c0,.14-.64.25-1.43.25s-1.44-.11-1.44-.25.65-.25,1.44-.25S142,51.84,142,52Z" style="fill:#e0e0e0"></path><path d="M147.74,52c0,.14-.64.25-1.44.25s-1.43-.11-1.43-.25.64-.25,1.43-.25S147.74,51.84,147.74,52Z" style="fill:#e0e0e0"></path><path d="M153.47,52c0,.14-.64.25-1.43.25s-1.43-.11-1.43-.25.64-.25,1.43-.25S153.47,51.84,153.47,52Z" style="fill:#e0e0e0"></path><path d="M159.21,52c0,.14-.64.25-1.43.25s-1.44-.11-1.44-.25.64-.25,1.44-.25S159.21,51.84,159.21,52Z" style="fill:#e0e0e0"></path><path d="M164.94,52c0,.14-.64.25-1.43.25s-1.43-.11-1.43-.25.64-.25,1.43-.25S164.94,51.84,164.94,52Z" style="fill:#e0e0e0"></path><path d="M170.68,52c0,.14-.64.25-1.43.25s-1.44-.11-1.44-.25.64-.25,1.44-.25S170.68,51.84,170.68,52Z" style="fill:#e0e0e0"></path><path d="M176.42,52c0,.14-.65.25-1.44.25s-1.43-.11-1.43-.25.64-.25,1.43-.25S176.42,51.84,176.42,52Z" style="fill:#e0e0e0"></path><path d="M182.15,52c0,.14-.64.25-1.43.25s-1.44-.11-1.44-.25.65-.25,1.44-.25S182.15,51.84,182.15,52Z" style="fill:#e0e0e0"></path><path d="M187.52,52.34c-.06,0-.12-.14-.16-.37l.16.17a6.07,6.07,0,0,1-1.07.08c-.79,0-1.43-.11-1.43-.25s.64-.25,1.43-.25a5.93,5.93,0,0,1,1.07.09l.19,0,0,.12C187.64,52.2,187.58,52.34,187.52,52.34Z" style="fill:#e0e0e0"></path><path d="M187.52,58.07c-.14,0-.25-.64-.25-1.43s.11-1.43.25-1.43.25.64.25,1.43S187.66,58.07,187.52,58.07Z" style="fill:#e0e0e0"></path><path d="M187.52,63.81c-.14,0-.25-.64-.25-1.43s.11-1.44.25-1.44.25.64.25,1.44S187.66,63.81,187.52,63.81Z" style="fill:#e0e0e0"></path><path d="M187.52,69.55c-.14,0-.25-.65-.25-1.44s.11-1.43.25-1.43.25.64.25,1.43S187.66,69.55,187.52,69.55Z" style="fill:#e0e0e0"></path><path d="M187.52,75.28c-.14,0-.25-.64-.25-1.43s.11-1.44.25-1.44.25.65.25,1.44S187.66,75.28,187.52,75.28Z" style="fill:#e0e0e0"></path><path d="M187.52,81c-.14,0-.25-.64-.25-1.44s.11-1.43.25-1.43.25.64.25,1.43S187.66,81,187.52,81Z" style="fill:#e0e0e0"></path><path d="M187.52,86.75c-.14,0-.25-.64-.25-1.43s.11-1.43.25-1.43.25.64.25,1.43S187.66,86.75,187.52,86.75Z" style="fill:#e0e0e0"></path><path d="M187.52,92.49c-.14,0-.25-.64-.25-1.44s.11-1.43.25-1.43.25.64.25,1.43S187.66,92.49,187.52,92.49Z" style="fill:#e0e0e0"></path><path d="M187.52,98.22c-.14,0-.25-.64-.25-1.43s.11-1.43.25-1.43.25.64.25,1.43S187.66,98.22,187.52,98.22Z" style="fill:#e0e0e0"></path><path d="M187.52,104c-.14,0-.25-.64-.25-1.43s.11-1.44.25-1.44.25.64.25,1.44S187.66,104,187.52,104Z" style="fill:#e0e0e0"></path><path d="M187.52,109.7c-.14,0-.25-.65-.25-1.44s.11-1.43.25-1.43.25.64.25,1.43S187.66,109.7,187.52,109.7Z" style="fill:#e0e0e0"></path><path d="M187.52,115.43c-.14,0-.25-.64-.25-1.43s.11-1.44.25-1.44.25.64.25,1.44S187.66,115.43,187.52,115.43Z" style="fill:#e0e0e0"></path><path d="M187.52,121.17c-.14,0-.25-.65-.25-1.44s.11-1.43.25-1.43.25.64.25,1.43S187.66,121.17,187.52,121.17Z" style="fill:#e0e0e0"></path><path d="M187.52,126.9c-.14,0-.25-.64-.25-1.43s.11-1.44.25-1.44.25.65.25,1.44S187.66,126.9,187.52,126.9Z" style="fill:#e0e0e0"></path><path d="M187.52,132.64c-.14,0-.25-.64-.25-1.44s.11-1.43.25-1.43.25.64.25,1.43S187.66,132.64,187.52,132.64Z" style="fill:#e0e0e0"></path><path d="M187.52,138.37c-.14,0-.25-.64-.25-1.43s.11-1.43.25-1.43.25.64.25,1.43S187.66,138.37,187.52,138.37Z" style="fill:#e0e0e0"></path><path d="M187.52,144.11c-.14,0-.25-.64-.25-1.44s.11-1.43.25-1.43.25.64.25,1.43S187.66,144.11,187.52,144.11Z" style="fill:#e0e0e0"></path><path d="M187.52,149.84c-.14,0-.25-.64-.25-1.43s.11-1.43.25-1.43.25.64.25,1.43S187.66,149.84,187.52,149.84Z" style="fill:#e0e0e0"></path><rect x="183.74" y="149.32" width="7.57" height="7.57" style="fill:#e0e0e0"></rect><rect x="81.58" y="150.35" width="7.57" height="7.57" style="fill:#e0e0e0"></rect><rect x="183.74" y="47.45" width="7.57" height="7.57" style="fill:#e0e0e0"></rect><rect x="81.58" y="48.19" width="7.57" height="7.57" style="fill:#e0e0e0"></rect><path d="M710.25,278.3a3.69,3.69,0,0,1,1.66-.19h.57l-.19.18c0-.65.1-1.11.19-1.11s.15.46.18,1.11v.18h-.76A3.69,3.69,0,0,1,710.25,278.3Z" style="fill:#e0e0e0"></path><path d="M705.79,278.3c0-.11.5-.19,1.11-.19s1.12.08,1.12.19-.5.19-1.12.19S705.79,278.41,705.79,278.3Z" style="fill:#e0e0e0"></path><path d="M701.33,278.3c0-.11.5-.19,1.11-.19s1.12.08,1.12.19-.5.19-1.12.19S701.33,278.41,701.33,278.3Z" style="fill:#e0e0e0"></path><path d="M696.87,278.3c0-.11.5-.19,1.11-.19s1.12.08,1.12.19-.5.19-1.12.19S696.87,278.41,696.87,278.3Z" style="fill:#e0e0e0"></path><path d="M692.41,278.3c0-.11.5-.19,1.11-.19s1.12.08,1.12.19-.5.19-1.12.19S692.41,278.41,692.41,278.3Z" style="fill:#e0e0e0"></path><path d="M688,278.3c0-.11.5-.19,1.11-.19s1.12.08,1.12.19-.5.19-1.12.19S688,278.41,688,278.3Z" style="fill:#e0e0e0"></path><path d="M683.49,278.3c0-.11.5-.19,1.11-.19s1.12.08,1.12.19-.5.19-1.12.19S683.49,278.41,683.49,278.3Z" style="fill:#e0e0e0"></path><path d="M679,278.3c0-.11.5-.19,1.11-.19s1.12.08,1.12.19-.5.19-1.12.19S679,278.41,679,278.3Z" style="fill:#e0e0e0"></path><path d="M674.57,278.3c0-.11.5-.19,1.11-.19s1.12.08,1.12.19-.5.19-1.12.19S674.57,278.41,674.57,278.3Z" style="fill:#e0e0e0"></path><path d="M670.11,278.3c0-.11.5-.19,1.11-.19s1.12.08,1.12.19-.5.19-1.12.19S670.11,278.41,670.11,278.3Z" style="fill:#e0e0e0"></path><path d="M665.65,278.3c0-.11.5-.19,1.11-.19s1.12.08,1.12.19-.5.19-1.12.19S665.65,278.41,665.65,278.3Z" style="fill:#e0e0e0"></path><path d="M661.19,278.3c0-.11.5-.19,1.11-.19s1.12.08,1.12.19-.5.19-1.12.19S661.19,278.41,661.19,278.3Z" style="fill:#e0e0e0"></path><path d="M656.73,278.3c0-.11.5-.19,1.11-.19s1.12.08,1.12.19-.5.19-1.12.19S656.73,278.41,656.73,278.3Z" style="fill:#e0e0e0"></path><path d="M652.27,278.3c0-.11.5-.19,1.11-.19s1.12.08,1.12.19-.5.19-1.12.19S652.27,278.41,652.27,278.3Z" style="fill:#e0e0e0"></path><path d="M647.81,278.3c0-.11.5-.19,1.11-.19s1.12.08,1.12.19-.5.19-1.12.19S647.81,278.41,647.81,278.3Z" style="fill:#e0e0e0"></path><path d="M643.35,278.3c0-.11.5-.19,1.11-.19s1.12.08,1.12.19-.5.19-1.12.19S643.35,278.41,643.35,278.3Z" style="fill:#e0e0e0"></path><path d="M638.89,278.3c0-.11.5-.19,1.11-.19s1.12.08,1.12.19-.5.19-1.12.19S638.89,278.41,638.89,278.3Z" style="fill:#e0e0e0"></path><path d="M634.43,278.3c0-.11.5-.19,1.11-.19s1.12.08,1.12.19-.5.19-1.12.19S634.43,278.41,634.43,278.3Z" style="fill:#e0e0e0"></path><path d="M633,275.23c.1,0,.19.5.19,1.12s-.09,1.11-.19,1.11-.2-.5-.2-1.11S632.93,275.23,633,275.23Z" style="fill:#e0e0e0"></path><path d="M633,270.77c.1,0,.19.5.19,1.12S633.14,273,633,273s-.2-.5-.2-1.11S632.93,270.77,633,270.77Z" style="fill:#e0e0e0"></path><path d="M633,266.31c.1,0,.19.5.19,1.12s-.09,1.11-.19,1.11-.2-.5-.2-1.11S632.93,266.31,633,266.31Z" style="fill:#e0e0e0"></path><path d="M633,261.85c.1,0,.19.5.19,1.12s-.09,1.11-.19,1.11-.2-.5-.2-1.11S632.93,261.85,633,261.85Z" style="fill:#e0e0e0"></path><path d="M633,257.39c.1,0,.19.5.19,1.12s-.09,1.11-.19,1.11-.2-.5-.2-1.11S632.93,257.39,633,257.39Z" style="fill:#e0e0e0"></path><path d="M633,252.93c.1,0,.19.5.19,1.12s-.09,1.11-.19,1.11-.2-.5-.2-1.11S632.93,252.93,633,252.93Z" style="fill:#e0e0e0"></path><path d="M633,248.47c.1,0,.19.5.19,1.12s-.09,1.11-.19,1.11-.2-.5-.2-1.11S632.93,248.47,633,248.47Z" style="fill:#e0e0e0"></path><path d="M633,244c.1,0,.19.5.19,1.12s-.09,1.11-.19,1.11-.2-.5-.2-1.11S632.93,244,633,244Z" style="fill:#e0e0e0"></path><path d="M633,239.55c.1,0,.19.5.19,1.12s-.09,1.11-.19,1.11-.2-.5-.2-1.11S632.93,239.55,633,239.55Z" style="fill:#e0e0e0"></path><path d="M633,235.09c.1,0,.19.5.19,1.12s-.09,1.11-.19,1.11-.2-.5-.2-1.11S632.93,235.09,633,235.09Z" style="fill:#e0e0e0"></path><path d="M633,230.63c.1,0,.19.5.19,1.12s-.09,1.11-.19,1.11-.2-.5-.2-1.11S632.93,230.63,633,230.63Z" style="fill:#e0e0e0"></path><path d="M633,226.17c.1,0,.19.5.19,1.12s-.09,1.11-.19,1.11-.2-.5-.2-1.11S632.93,226.17,633,226.17Z" style="fill:#e0e0e0"></path><path d="M633,221.71c.1,0,.19.5.19,1.12s-.09,1.11-.19,1.11-.2-.49-.2-1.11S632.93,221.71,633,221.71Z" style="fill:#e0e0e0"></path><path d="M633,217.25c.1,0,.19.5.19,1.12s-.09,1.11-.19,1.11-.2-.49-.2-1.11S632.93,217.25,633,217.25Z" style="fill:#e0e0e0"></path><path d="M633,212.79c.1,0,.19.5.19,1.12S633.14,215,633,215s-.2-.49-.2-1.11S632.93,212.79,633,212.79Z" style="fill:#e0e0e0"></path><path d="M633,208.33c.1,0,.19.5.19,1.12s-.09,1.11-.19,1.11-.2-.49-.2-1.11S632.93,208.33,633,208.33Z" style="fill:#e0e0e0"></path><path d="M633,203.87c.1,0,.19.5.19,1.12s-.09,1.11-.19,1.11-.2-.49-.2-1.11S632.93,203.87,633,203.87Z" style="fill:#e0e0e0"></path><path d="M633,199.41c.1,0,.19.5.19,1.12s-.09,1.11-.19,1.11-.2-.49-.2-1.11S632.93,199.41,633,199.41Z" style="fill:#e0e0e0"></path><path d="M636.94,198.86c0,.11-.5.19-1.11.19s-1.12-.08-1.12-.19.5-.19,1.12-.19S636.94,198.75,636.94,198.86Z" style="fill:#e0e0e0"></path><path d="M641.4,198.86c0,.11-.5.19-1.11.19s-1.12-.08-1.12-.19.5-.19,1.12-.19S641.4,198.75,641.4,198.86Z" style="fill:#e0e0e0"></path><path d="M645.86,198.86c0,.11-.5.19-1.11.19s-1.12-.08-1.12-.19.5-.19,1.12-.19S645.86,198.75,645.86,198.86Z" style="fill:#e0e0e0"></path><path d="M650.32,198.86c0,.11-.5.19-1.11.19s-1.12-.08-1.12-.19.5-.19,1.12-.19S650.32,198.75,650.32,198.86Z" style="fill:#e0e0e0"></path><path d="M654.78,198.86c0,.11-.5.19-1.11.19s-1.12-.08-1.12-.19.5-.19,1.12-.19S654.78,198.75,654.78,198.86Z" style="fill:#e0e0e0"></path><path d="M659.24,198.86c0,.11-.5.19-1.11.19S657,199,657,198.86s.5-.19,1.12-.19S659.24,198.75,659.24,198.86Z" style="fill:#e0e0e0"></path><path d="M663.7,198.86c0,.11-.5.19-1.11.19s-1.12-.08-1.12-.19.5-.19,1.12-.19S663.7,198.75,663.7,198.86Z" style="fill:#e0e0e0"></path><path d="M668.16,198.86c0,.11-.5.19-1.11.19s-1.12-.08-1.12-.19.5-.19,1.12-.19S668.16,198.75,668.16,198.86Z" style="fill:#e0e0e0"></path><path d="M672.62,198.86c0,.11-.5.19-1.11.19s-1.12-.08-1.12-.19.5-.19,1.12-.19S672.62,198.75,672.62,198.86Z" style="fill:#e0e0e0"></path><path d="M677.08,198.86c0,.11-.5.19-1.11.19s-1.12-.08-1.12-.19.5-.19,1.12-.19S677.08,198.75,677.08,198.86Z" style="fill:#e0e0e0"></path><path d="M681.54,198.86c0,.11-.5.19-1.11.19s-1.12-.08-1.12-.19.5-.19,1.12-.19S681.54,198.75,681.54,198.86Z" style="fill:#e0e0e0"></path><path d="M686,198.86c0,.11-.5.19-1.11.19s-1.12-.08-1.12-.19.5-.19,1.12-.19S686,198.75,686,198.86Z" style="fill:#e0e0e0"></path><path d="M690.46,198.86c0,.11-.5.19-1.11.19s-1.12-.08-1.12-.19.5-.19,1.12-.19S690.46,198.75,690.46,198.86Z" style="fill:#e0e0e0"></path><path d="M694.92,198.86c0,.11-.5.19-1.11.19s-1.12-.08-1.12-.19.5-.19,1.12-.19S694.92,198.75,694.92,198.86Z" style="fill:#e0e0e0"></path><path d="M699.38,198.86c0,.11-.5.19-1.11.19s-1.12-.08-1.12-.19.5-.19,1.12-.19S699.38,198.75,699.38,198.86Z" style="fill:#e0e0e0"></path><path d="M703.84,198.86c0,.11-.5.19-1.11.19s-1.12-.08-1.12-.19.5-.19,1.12-.19S703.84,198.75,703.84,198.86Z" style="fill:#e0e0e0"></path><path d="M708.3,198.86c0,.11-.5.19-1.11.19s-1.12-.08-1.12-.19.5-.19,1.12-.19S708.3,198.75,708.3,198.86Z" style="fill:#e0e0e0"></path><path d="M712.48,199.15c-.05,0-.1-.11-.13-.29l.13.13a4.63,4.63,0,0,1-.83.06c-.62,0-1.12-.08-1.12-.19s.5-.19,1.12-.19a4.63,4.63,0,0,1,.83.06l.14,0,0,.1C712.57,199,712.53,199.15,712.48,199.15Z" style="fill:#e0e0e0"></path><ellipse cx="712.48" cy="202.49" rx="0.19" ry="1.12" style="fill:#e0e0e0"></ellipse><ellipse cx="712.48" cy="206.95" rx="0.19" ry="1.12" style="fill:#e0e0e0"></ellipse><ellipse cx="712.48" cy="211.41" rx="0.19" ry="1.12" style="fill:#e0e0e0"></ellipse><ellipse cx="712.48" cy="215.87" rx="0.19" ry="1.11" style="fill:#e0e0e0"></ellipse><path d="M712.48,221.45c-.11,0-.2-.5-.2-1.12s.09-1.11.2-1.11.19.49.19,1.11S712.58,221.45,712.48,221.45Z" style="fill:#e0e0e0"></path><path d="M712.48,225.91c-.11,0-.2-.5-.2-1.12s.09-1.11.2-1.11.19.49.19,1.11S712.58,225.91,712.48,225.91Z" style="fill:#e0e0e0"></path><path d="M712.48,230.37c-.11,0-.2-.5-.2-1.12s.09-1.11.2-1.11.19.49.19,1.11S712.58,230.37,712.48,230.37Z" style="fill:#e0e0e0"></path><path d="M712.48,234.82c-.11,0-.2-.49-.2-1.11s.09-1.11.2-1.11.19.49.19,1.11S712.58,234.82,712.48,234.82Z" style="fill:#e0e0e0"></path><ellipse cx="712.48" cy="238.17" rx="0.19" ry="1.12" style="fill:#e0e0e0"></ellipse><ellipse cx="712.48" cy="242.63" rx="0.19" ry="1.12" style="fill:#e0e0e0"></ellipse><ellipse cx="712.48" cy="247.09" rx="0.19" ry="1.11" style="fill:#e0e0e0"></ellipse><ellipse cx="712.48" cy="251.55" rx="0.19" ry="1.11" style="fill:#e0e0e0"></ellipse><ellipse cx="712.48" cy="256.01" rx="0.19" ry="1.11" style="fill:#e0e0e0"></ellipse><path d="M712.48,261.58c-.11,0-.2-.49-.2-1.11s.09-1.12.2-1.12.19.5.19,1.12S712.58,261.58,712.48,261.58Z" style="fill:#e0e0e0"></path><path d="M712.48,266c-.11,0-.2-.49-.2-1.11s.09-1.12.2-1.12.19.5.19,1.12S712.58,266,712.48,266Z" style="fill:#e0e0e0"></path><path d="M712.48,270.5c-.11,0-.2-.5-.2-1.11s.09-1.12.2-1.12.19.5.19,1.12S712.58,270.5,712.48,270.5Z" style="fill:#e0e0e0"></path><path d="M712.48,275c-.11,0-.2-.5-.2-1.11s.09-1.12.2-1.12.19.5.19,1.12S712.58,275,712.48,275Z" style="fill:#e0e0e0"></path><rect x="709.53" y="274.55" width="5.88" height="5.88" style="fill:#e0e0e0"></rect><rect x="630.09" y="275.36" width="5.88" height="5.88" style="fill:#e0e0e0"></rect><rect x="709.53" y="195.35" width="5.88" height="5.88" style="fill:#e0e0e0"></rect><rect x="630.09" y="195.92" width="5.88" height="5.88" style="fill:#e0e0e0"></rect></g><g id="freepik--device-4--inject-19"><rect x="579.76" y="258.75" width="115.7" height="166.03" rx="11.55" style="fill:#263238"></rect><rect x="583.41" y="270.11" width="108.22" height="138.66" style="fill:#fff"></rect><path d="M642.05,416.44a4.44,4.44,0,1,1-4.44-4.44A4.44,4.44,0,0,1,642.05,416.44Z" style="fill:#455a64"></path><rect x="620.19" y="263.53" width="34.85" height="1.83" rx="0.91" style="fill:#455a64"></rect><rect x="639.06" y="332.9" width="43.34" height="28.27" style="fill:#455a64"></rect><path d="M645.35,338.51a1.74,1.74,0,1,1-1.74-1.74A1.73,1.73,0,0,1,645.35,338.51Z" style="fill:#fafafa"></path><path d="M680.05,340l-1.43-1.4-1.32,1.36,0-4.05,2.76,0Zm-1.43-1.57,0,0,1.25,1.23,0-3.69-2.5,0,0,3.63Z" style="fill:#fafafa"></path><path d="M669.13,337.59c0,.14-4.76.26-10.63.26s-10.63-.12-10.63-.26,4.76-.26,10.63-.26S669.13,337.44,669.13,337.59Z" style="fill:#fafafa"></path><path d="M656.07,340a32.46,32.46,0,0,1-8.2,0,32.46,32.46,0,0,1,8.2,0Z" style="fill:#fafafa"></path><path d="M593.42,274.54c-3.25.63-6.62-.05-9.89.45l-.12,0v22.66c10.16,1,20.22,3.56,30.32,5.33,13.49,2.36,28,3.19,40.34-2.7,10-4.74,17.49-13.35,26.71-19.41a56.49,56.49,0,0,1,10.86-5.56v-5.22H599.23C598.43,272.35,595.9,274.06,593.42,274.54Zm29.63,3.85a7,7,0,1,1-7,7A7,7,0,0,1,623.05,278.39Z" style="fill:#7956A6"></path><path d="M654.07,300.3c-12.37,5.89-26.85,5.06-40.34,2.7-10.1-1.77-20.16-4.33-30.32-5.33v15.86H691.64v-38.2a56.49,56.49,0,0,0-10.86,5.56C671.56,287,664,295.56,654.07,300.3Zm-20.08,9a.6.6,0,1,1,.61-.6A.6.6,0,0,1,634,309.29Zm3.81,0a.6.6,0,1,1,.61-.6A.6.6,0,0,1,637.8,309.29Zm3.81,0a.6.6,0,1,1,0-1.2.6.6,0,1,1,0,1.2Z" style="fill:#7956A6"></path><g style="opacity:0.30000000000000004"><path d="M654.07,300.3c-12.37,5.89-26.85,5.06-40.34,2.7-10.1-1.77-20.16-4.33-30.32-5.33v15.86H691.64v-38.2a56.49,56.49,0,0,0-10.86,5.56C671.56,287,664,295.56,654.07,300.3Zm-20.08,9a.6.6,0,1,1,.61-.6A.6.6,0,0,1,634,309.29Zm3.81,0a.6.6,0,1,1,.61-.6A.6.6,0,0,1,637.8,309.29Zm3.81,0a.6.6,0,1,1,0-1.2.6.6,0,1,1,0,1.2Z"></path></g><path d="M634,308.09a.6.6,0,1,0,.61.6A.6.6,0,0,0,634,308.09Z" style="fill:#263238"></path><path d="M637.8,308.09a.6.6,0,1,0,.61.6A.6.6,0,0,0,637.8,308.09Z" style="fill:#263238"></path><path d="M641.61,308.09a.6.6,0,1,0,0,1.2.6.6,0,1,0,0-1.2Z" style="fill:#263238"></path><circle cx="623.05" cy="285.38" r="6.99" style="fill:#7956A6"></circle><g style="opacity:0.30000000000000004"><circle cx="623.05" cy="285.38" r="6.99"></circle></g><path d="M593.42,274.54c2.48-.48,5-2.19,5.81-4.43H583.41V275l.12,0C586.8,274.49,590.17,275.17,593.42,274.54Z" style="fill:#7956A6"></path><path d="M679.59,322.38c0,.15-18.84.26-42.06.26s-42.07-.11-42.07-.26,18.83-.26,42.07-.26S679.59,322.24,679.59,322.38Z" style="fill:#263238"></path><path d="M659.13,325.28c0,.15-10.09.26-22.53.26s-22.54-.11-22.54-.26,10.09-.26,22.54-.26S659.13,325.14,659.13,325.28Z" style="fill:#263238"></path><rect x="589.73" y="332.9" width="43.34" height="28.27" style="fill:#7956A6"></rect><path d="M596,338.51a1.74,1.74,0,1,1-1.74-1.74A1.73,1.73,0,0,1,596,338.51Z" style="fill:#fafafa"></path><path d="M630.72,340l-1.43-1.4L628,339.93l-.05-4.05,2.76,0Zm-1.43-1.57.05,0,1.25,1.23,0-3.69-2.5,0,0,3.63Z" style="fill:#fafafa"></path><path d="M619.8,337.59c0,.14-4.76.26-10.63.26s-10.63-.12-10.63-.26,4.76-.26,10.63-.26S619.8,337.44,619.8,337.59Z" style="fill:#fafafa"></path><path d="M606.74,340a32.46,32.46,0,0,1-8.2,0,32.46,32.46,0,0,1,8.2,0Z" style="fill:#fafafa"></path><path d="M633.07,365c0,.14-9.7.26-21.67.26s-21.67-.12-21.67-.26,9.7-.26,21.67-.26S633.07,364.87,633.07,365Z" style="fill:#263238"></path><path d="M633.07,367.59c0,.14-9.7.26-21.67.26s-21.67-.12-21.67-.26,9.7-.26,21.67-.26S633.07,367.45,633.07,367.59Z" style="fill:#263238"></path><path d="M612.32,370.17c0,.14-5.06.26-11.3.26s-11.29-.12-11.29-.26,5.06-.26,11.29-.26S612.32,370,612.32,370.17Z" style="fill:#263238"></path><rect x="589.73" y="375.15" width="43.34" height="28.27" style="fill:#7956A6"></rect><path d="M596,380.75a1.74,1.74,0,1,1-1.74-1.74A1.74,1.74,0,0,1,596,380.75Z" style="fill:#fafafa"></path><path d="M630.72,382.21l-1.43-1.39L628,382.17l-.05-4.05,2.76,0Zm-1.43-1.57.05,0,1.25,1.23,0-3.69-2.5,0,0,3.62Z" style="fill:#fafafa"></path><path d="M619.8,379.83c0,.14-4.76.26-10.63.26s-10.63-.12-10.63-.26,4.76-.26,10.63-.26S619.8,379.69,619.8,379.83Z" style="fill:#fafafa"></path><path d="M606.74,382.21a32.46,32.46,0,0,1-8.2,0,32.46,32.46,0,0,1,8.2,0Z" style="fill:#fafafa"></path><path d="M633.07,407.25c0,.15-9.7.26-21.67.26s-21.67-.11-21.67-.26,9.7-.26,21.67-.26S633.07,407.11,633.07,407.25Z" style="fill:#263238"></path><rect x="640.22" y="375.15" width="43.34" height="28.27" style="fill:#455a64"></rect><path d="M646.51,380.75a1.74,1.74,0,1,1-1.74-1.74A1.74,1.74,0,0,1,646.51,380.75Z" style="fill:#fafafa"></path><path d="M681.22,382.21l-1.43-1.39-1.33,1.35,0-4.05,2.75,0Zm-1.43-1.57,0,0,1.26,1.23,0-3.69-2.51,0,0,3.62Z" style="fill:#fafafa"></path><path d="M670.3,379.83c0,.14-4.76.26-10.63.26S649,380,649,379.83s4.75-.26,10.63-.26S670.3,379.69,670.3,379.83Z" style="fill:#fafafa"></path><path d="M657.23,382.21a32.38,32.38,0,0,1-8.19,0,32.38,32.38,0,0,1,8.19,0Z" style="fill:#fafafa"></path><path d="M683.57,407.25c0,.15-9.71.26-21.67.26s-21.68-.11-21.68-.26,9.71-.26,21.68-.26S683.57,407.11,683.57,407.25Z" style="fill:#263238"></path><path d="M683,365c0,.14-9.7.26-21.67.26s-21.67-.12-21.67-.26,9.7-.26,21.67-.26S683,364.87,683,365Z" style="fill:#263238"></path><path d="M683,367.59c0,.14-9.7.26-21.67.26s-21.67-.12-21.67-.26,9.7-.26,21.67-.26S683,367.45,683,367.59Z" style="fill:#263238"></path><path d="M662.24,370.17c0,.14-5.06.26-11.29.26s-11.3-.12-11.3-.26,5.06-.26,11.3-.26S662.24,370,662.24,370.17Z" style="fill:#263238"></path><g style="opacity:0.30000000000000004"><path d="M593.42,274.54c2.48-.48,5-2.19,5.81-4.43H583.41V275l.12,0C586.8,274.49,590.17,275.17,593.42,274.54Z" style="fill:#fff"></path></g></g><g id="freepik--device-3--inject-19"><path d="M559.47,144.8H242.29a9.9,9.9,0,0,0-9.9,9.9v224a9.9,9.9,0,0,0,9.9,9.9H364s7.75,23.95-16.26,36.34H461.59s-27.11-9.29-20.14-36.34h118a9.9,9.9,0,0,0,9.9-9.9v-224A9.9,9.9,0,0,0,559.47,144.8Z" style="fill:#263238"></path><path d="M405.11,365.07c4.32,6.17-2.43,12.92-8.6,8.61a2.22,2.22,0,0,1-.53-.53c-4.31-6.17,2.44-12.91,8.6-8.61A2.05,2.05,0,0,1,405.11,365.07Z" style="fill:#455a64"></path><rect x="239.55" y="158.23" width="322" height="191" rx="3.27" style="fill:#fafafa"></rect><path d="M558.28,349.73H242.82a3.77,3.77,0,0,1-3.77-3.77V161.5a3.77,3.77,0,0,1,3.77-3.77H558.28a3.77,3.77,0,0,1,3.77,3.77V346A3.77,3.77,0,0,1,558.28,349.73Zm-315.46-191a2.78,2.78,0,0,0-2.77,2.77V346a2.77,2.77,0,0,0,2.77,2.77H558.28a2.77,2.77,0,0,0,2.77-2.77V161.5a2.78,2.78,0,0,0-2.77-2.77Z" style="fill:#fff"></path><path d="M266,165.61a2.58,2.58,0,1,1-2.58-2.57A2.58,2.58,0,0,1,266,165.61Z" style="fill:#455a64"></path><path d="M250.37,165.61A2.57,2.57,0,1,1,247.8,163,2.57,2.57,0,0,1,250.37,165.61Z" style="fill:#455a64"></path><path d="M257.85,165.61a2.57,2.57,0,1,1-2.57-2.57A2.57,2.57,0,0,1,257.85,165.61Z" style="fill:#455a64"></path><path d="M461.57,263.08c0,.14-26.73.26-59.7.26s-59.7-.12-59.7-.26,26.72-.26,59.7-.26S461.57,262.94,461.57,263.08Z" style="fill:#263238"></path><path d="M432.53,267.19c0,.15-14.32.26-32,.26s-32-.11-32-.26,14.32-.26,32-.26S432.53,267.05,432.53,267.19Z" style="fill:#263238"></path><rect x="271.33" y="284.89" width="76.21" height="49.71" style="fill:#7956A6"></rect><path d="M282.39,294.74a3.06,3.06,0,1,1-3.06-3.05A3.05,3.05,0,0,1,282.39,294.74Z" style="fill:#fafafa"></path><path d="M343.41,297.31l-2.51-2.46-2.33,2.39-.08-7.12,4.84-.05Zm-2.51-2.76.08.07,2.21,2.16-.07-6.49-4.41,0,.07,6.37Z" style="fill:#fafafa"></path><path d="M324.21,293.12c0,.15-8.37.26-18.69.26s-18.69-.11-18.69-.26,8.37-.26,18.69-.26S324.21,293,324.21,293.12Z" style="fill:#fafafa"></path><path d="M301.24,297.31a50.87,50.87,0,0,1-7.21.26,50.66,50.66,0,0,1-7.2-.26,50.66,50.66,0,0,1,7.2-.26A50.87,50.87,0,0,1,301.24,297.31Z" style="fill:#fafafa"></path><rect x="363.76" y="284.89" width="76.21" height="49.71" style="fill:#455a64"></rect><path d="M439,340.37c0,.15-16.48.26-36.82.26s-36.82-.11-36.82-.26,16.48-.26,36.82-.26S439,340.23,439,340.37Z" style="fill:#263238"></path><circle cx="371.76" cy="294.74" r="3.05" style="fill:#fafafa"></circle><path d="M435.84,297.31l-2.51-2.46L431,297.24l-.08-7.12,4.84-.05Zm-2.51-2.76.07.07,2.21,2.16-.07-6.49-4.4,0,.07,6.37Z" style="fill:#fafafa"></path><path d="M416.64,293.12c0,.15-8.37.26-18.69.26s-18.7-.11-18.7-.26,8.37-.26,18.7-.26S416.64,293,416.64,293.12Z" style="fill:#fafafa"></path><path d="M393.67,297.31a100.1,100.1,0,0,1-14.42,0,100.1,100.1,0,0,1,14.42,0Z" style="fill:#fafafa"></path><rect x="456.19" y="284.89" width="76.21" height="49.71" style="fill:#7956A6"></rect><path d="M531.4,340.37c0,.15-16.49.26-36.82.26s-36.83-.11-36.83-.26,16.49-.26,36.83-.26S531.4,340.23,531.4,340.37Z" style="fill:#263238"></path><path d="M467.24,294.74a3.05,3.05,0,1,1-3.05-3.05A3,3,0,0,1,467.24,294.74Z" style="fill:#fafafa"></path><path d="M528.27,297.31l-2.51-2.46-2.34,2.39-.07-7.12,4.84-.05Zm-2.52-2.76.08.07,2.21,2.16-.07-6.49-4.4,0,.07,6.37Z" style="fill:#fafafa"></path><path d="M509.07,293.12c0,.15-8.37.26-18.69.26s-18.7-.11-18.7-.26,8.37-.26,18.7-.26S509.07,293,509.07,293.12Z" style="fill:#fafafa"></path><path d="M486.1,297.31a100.1,100.1,0,0,1-14.42,0,100.1,100.1,0,0,1,14.42,0Z" style="fill:#fafafa"></path><path d="M559.05,310.41a10.57,10.57,0,1,1-10.57-10.57A10.57,10.57,0,0,1,559.05,310.41Z" style="fill:#e0e0e0"></path><path d="M546.88,314.91a9.92,9.92,0,0,1,1.48-1.37c.95-.82,2.28-1.92,3.76-3.12v.28l-.07-.06c-1.46-1.27-2.77-2.43-3.7-3.29a10.55,10.55,0,0,1-1.46-1.44,11.79,11.79,0,0,1,1.63,1.24c1,.81,2.32,1.94,3.78,3.2l.07.07.17.15-.17.14c-1.49,1.2-2.84,2.27-3.83,3A11.05,11.05,0,0,1,546.88,314.91Z" style="fill:#263238"></path><path d="M243.14,310.41A10.57,10.57,0,1,1,253.71,321,10.57,10.57,0,0,1,243.14,310.41Z" style="fill:#e0e0e0"></path><path d="M255.31,305.91a9.92,9.92,0,0,1-1.48,1.37c-1,.81-2.28,1.92-3.76,3.12v-.29l.07.07c1.46,1.26,2.77,2.43,3.7,3.28a10.21,10.21,0,0,1,1.46,1.45,11.79,11.79,0,0,1-1.63-1.24c-1-.81-2.32-1.94-3.78-3.21l-.07-.06-.17-.15.17-.14c1.49-1.2,2.84-2.28,3.83-3A11.37,11.37,0,0,1,255.31,305.91Z" style="fill:#263238"></path></g><g id="freepik--device-2--inject-19"><path d="M203.07,241.85l-52.85-.25a11.49,11.49,0,0,1-11.46-11.53L139.32,98a11.5,11.5,0,0,1,11.57-11.43l52.84.25a11.48,11.48,0,0,1,11.46,11.52l-.56,132.12A11.5,11.5,0,0,1,203.07,241.85Z" style="fill:#263238"></path><path d="M203.66,91.33l-10.25,0a2.54,2.54,0,0,0-2.5,2.58v1.85a2.54,2.54,0,0,1-2.49,2.59l-20-.1A2.53,2.53,0,0,1,166,95.6V93.75a2.54,2.54,0,0,0-2.47-2.61l-3.61,0-9,0a8.05,8.05,0,0,0-8.1,8l-.55,129a8,8,0,0,0,8,8.07l52.74.24a8.05,8.05,0,0,0,8.1-8l.54-129A8,8,0,0,0,203.66,91.33Z" style="fill:#fff"></path><path d="M203,144.14c0,.14-11.47.26-25.61.26s-25.62-.12-25.62-.26,11.47-.26,25.62-.26S203,144,203,144.14Z" style="fill:#263238"></path><path d="M203,147.29c0,.15-11.47.26-25.61.26s-25.62-.11-25.62-.26,11.47-.26,25.62-.26S203,147.15,203,147.29Z" style="fill:#263238"></path><path d="M185.69,150.12c0,.14-4.62.26-10.31.26s-10.31-.12-10.31-.26a100.11,100.11,0,0,1,10.31-.26A100.27,100.27,0,0,1,185.69,150.12Z" style="fill:#263238"></path><rect x="148.78" y="157.06" width="54.19" height="34.69" style="fill:#7956A6"></rect><ellipse cx="154.47" cy="163.94" rx="2.17" ry="2.13" style="fill:#fafafa"></ellipse><path d="M200,165.74,198.25,164l-1.65,1.66-.06-5,3.44,0Zm-1.79-1.93.06.05,1.57,1.51,0-4.54-3.13,0,.05,4.44Z" style="fill:#fafafa"></path><path d="M186.39,162.81c0,.15-5.95.26-13.3.26s-13.29-.11-13.29-.26,5.95-.26,13.29-.26S186.39,162.67,186.39,162.81Z" style="fill:#fafafa"></path><path d="M170.05,165.74a25.73,25.73,0,0,1-5.12.26,25.88,25.88,0,0,1-5.13-.26,24.56,24.56,0,0,1,5.13-.27A24.42,24.42,0,0,1,170.05,165.74Z" style="fill:#fafafa"></path><path d="M163.49,91.14l-3.61,0-9,0a8.05,8.05,0,0,0-8.1,8l-.11,24.45c2.71.55,5.42,1.08,8.13,1.55,14,2.44,28.93,3.31,41.72-2.79,7.09-3.37,13-8.64,19.08-13.64l0-9.26a8,8,0,0,0-8-8.07l-10.25,0a2.54,2.54,0,0,0-2.5,2.58v1.85a2.54,2.54,0,0,1-2.49,2.59l-20-.1A2.53,2.53,0,0,1,166,95.6V93.75A2.54,2.54,0,0,0,163.49,91.14Zm4.22,15.73a7.23,7.23,0,1,1-7.22-7.23A7.23,7.23,0,0,1,167.71,106.87Z" style="fill:#7956A6"></path><path d="M150.84,125.09c-2.71-.47-5.42-1-8.13-1.55L142.66,136h68.87l.11-27.33c-6.09,5-12,10.27-19.08,13.64C179.77,128.4,164.8,127.53,150.84,125.09Zm21,6.51a.62.62,0,1,1,.62-.62A.62.62,0,0,1,171.8,131.6Zm3.94,0a.62.62,0,1,1,.62-.62A.62.62,0,0,1,175.74,131.6Zm3.94,0a.62.62,0,1,1,.62-.62A.62.62,0,0,1,179.68,131.6Z" style="fill:#7956A6"></path><path d="M171.8,130.36a.62.62,0,1,0,.62.62A.62.62,0,0,0,171.8,130.36Z" style="fill:#263238"></path><path d="M175.74,130.36a.62.62,0,1,0,.62.62A.62.62,0,0,0,175.74,130.36Z" style="fill:#263238"></path><path d="M179.68,130.36a.62.62,0,1,0,.62.62A.62.62,0,0,0,179.68,130.36Z" style="fill:#263238"></path><path d="M160.49,99.64a7.23,7.23,0,1,0,7.22,7.23A7.23,7.23,0,0,0,160.49,99.64Z" style="fill:#7956A6"></path><g style="opacity:0.30000000000000004"><path d="M160.49,99.64a7.23,7.23,0,1,0,7.22,7.23A7.23,7.23,0,0,0,160.49,99.64Z"></path></g><path d="M148.78,236a8.42,8.42,0,0,0,1.52.15l51.67.24V209.2H148.78ZM199,212.82l.06,5.05-1.75-1.71-1.63,1.66-.05-5ZM154.37,214a2.13,2.13,0,1,1-2.13,2.13A2.13,2.13,0,0,1,154.37,214Z" style="fill:#455a64"></path><polygon points="197.34 215.94 197.39 216 198.93 217.5 198.88 212.97 195.81 213 195.86 217.45 197.34 215.94" style="fill:#455a64"></polygon><circle cx="154.37" cy="216.08" r="2.13" style="fill:#fafafa"></circle><path d="M197.34,216.16l1.75,1.71-.06-5.05-3.37,0,.05,5Zm1.54-3.19.05,4.54L197.39,216l-.06-.06-1.47,1.51-.05-4.45Z" style="fill:#fafafa"></path><g style="opacity:0.30000000000000004"><path d="M150.84,125.09c-2.71-.47-5.42-1-8.13-1.55L142.66,136h68.87l.11-27.33c-6.09,5-12,10.27-19.08,13.64C179.77,128.4,164.8,127.53,150.84,125.09Zm21,6.51a.62.62,0,1,1,.62-.62A.62.62,0,0,1,171.8,131.6Zm3.94,0a.62.62,0,1,1,.62-.62A.62.62,0,0,1,175.74,131.6Zm3.94,0a.62.62,0,1,1,.62-.62A.62.62,0,0,1,179.68,131.6Z"></path></g><path d="M201.53,195.23c0,.15-11.81.26-26.37.26s-26.38-.11-26.38-.26,11.81-.26,26.38-.26S201.53,195.09,201.53,195.23Z" style="fill:#263238"></path><path d="M201.53,197.9c0,.14-11.81.26-26.37.26s-26.38-.12-26.38-.26,11.81-.26,26.38-.26S201.53,197.75,201.53,197.9Z" style="fill:#263238"></path><path d="M201.53,200.94c0,.14-11.81.26-26.37.26s-26.38-.12-26.38-.26,11.81-.26,26.38-.26S201.53,200.8,201.53,200.94Z" style="fill:#263238"></path><path d="M176.27,203.58c0,.15-6.15.26-13.74.26s-13.75-.11-13.75-.26,6.16-.26,13.75-.26S176.27,203.44,176.27,203.58Z" style="fill:#263238"></path></g><g id="freepik--device-1--inject-19"><path d="M65.82,252.69H308.5a6.74,6.74,0,0,1,6.74,6.74V408.18a14.57,14.57,0,0,1-14.57,14.57h-228a14.57,14.57,0,0,1-14.57-14.57V260.44a7.75,7.75,0,0,1,7.75-7.75Z" style="fill:#263238"></path><path d="M47.32,410.17H325.94a0,0,0,0,1,0,0v1.16a13.72,13.72,0,0,1-13.72,13.72H61a13.72,13.72,0,0,1-13.72-13.72v-1.16a0,0,0,0,1,0,0Z" style="fill:#263238"></path><rect x="64.97" y="259.44" width="242.64" height="143.61" style="fill:#455a64"></rect><polygon points="161.3 410.17 164.76 415.67 213.41 415.67 216.62 410.17 161.3 410.17" style="fill:#455a64"></polygon><rect x="73.07" y="269.01" width="223.4" height="133.99" style="fill:#fff"></rect><path d="M82.6,275.62a1.88,1.88,0,1,1-1.87-1.88A1.87,1.87,0,0,1,82.6,275.62Z" style="fill:#263238"></path><path d="M90.25,275.62a1.88,1.88,0,1,1-1.87-1.88A1.87,1.87,0,0,1,90.25,275.62Z" style="fill:#263238"></path><path d="M97.9,275.62A1.88,1.88,0,1,1,96,273.74,1.87,1.87,0,0,1,97.9,275.62Z" style="fill:#263238"></path><rect x="58.07" y="410.29" width="257.17" height="0.82" style="fill:#455a64"></rect><path d="M238.38,345.6c0,.14-23.81.26-53.17.26S132,345.74,132,345.6s23.8-.26,53.17-.26S238.38,345.45,238.38,345.6Z" style="fill:#263238"></path><path d="M212.52,349.26c0,.15-12.75.26-28.48.26s-28.49-.11-28.49-.26S168.3,349,184,349,212.52,349.12,212.52,349.26Z" style="fill:#263238"></path><rect x="89.33" y="361.66" width="59.63" height="38.89" style="fill:#7956A6"></rect><path d="M98,369.38A2.39,2.39,0,1,1,95.59,367,2.39,2.39,0,0,1,98,369.38Z" style="fill:#fafafa"></path><path d="M145.73,371.39l-2-1.93-1.82,1.87-.06-5.57,3.79,0Zm-2-2.17.06.06,1.73,1.69-.05-5.08-3.45,0,0,5Z" style="fill:#fafafa"></path><path d="M130.71,368.11c0,.14-6.55.26-14.63.26s-14.63-.12-14.63-.26,6.55-.26,14.63-.26S130.71,368,130.71,368.11Z" style="fill:#fafafa"></path><path d="M112.73,371.39a31.25,31.25,0,0,1-5.64.26,31.15,31.15,0,0,1-5.64-.26,30.1,30.1,0,0,1,5.64-.26A30.19,30.19,0,0,1,112.73,371.39Z" style="fill:#fafafa"></path><rect x="155.39" y="361.66" width="59.63" height="38.89" style="fill:#455a64"></rect><path d="M164,369.38a2.39,2.39,0,1,1-2.39-2.39A2.39,2.39,0,0,1,164,369.38Z" style="fill:#fafafa"></path><path d="M211.79,371.39l-2-1.93L208,371.33l-.06-5.57,3.79,0Zm-2-2.17.07.06,1.72,1.69-.05-5.08-3.44,0,0,5Z" style="fill:#fafafa"></path><path d="M196.77,368.11c0,.14-6.55.26-14.63.26s-14.63-.12-14.63-.26,6.55-.26,14.63-.26S196.77,368,196.77,368.11Z" style="fill:#fafafa"></path><path d="M178.79,371.39a31.15,31.15,0,0,1-5.64.26,31.25,31.25,0,0,1-5.64-.26,30.19,30.19,0,0,1,5.64-.26A30.1,30.1,0,0,1,178.79,371.39Z" style="fill:#fafafa"></path><rect x="221.33" y="361.66" width="59.63" height="38.89" style="fill:#7956A6"></rect><path d="M230,369.38a2.39,2.39,0,1,1-2.39-2.39A2.39,2.39,0,0,1,230,369.38Z" style="fill:#fafafa"></path><path d="M277.73,371.39l-2-1.93-1.83,1.87-.06-5.57,3.79,0Zm-2-2.17.06.06,1.73,1.69-.06-5.08-3.44,0,.05,5Z" style="fill:#fafafa"></path><path d="M262.71,368.11c0,.14-6.55.26-14.62.26s-14.63-.12-14.63-.26,6.54-.26,14.63-.26S262.71,368,262.71,368.11Z" style="fill:#fafafa"></path><path d="M244.73,371.39a31.09,31.09,0,0,1-5.63.26,31.15,31.15,0,0,1-5.64-.26,30.1,30.1,0,0,1,5.64-.26A30,30,0,0,1,244.73,371.39Z" style="fill:#fafafa"></path><path d="M125.87,287.41c-4.1.79-8.37-.07-12.5.57-8.25,1.26-14.43,8.07-22,11.54a28.61,28.61,0,0,1-18.28,1.67v21.68a64.69,64.69,0,0,1,27.15-6.73c17.31-.52,34.27,4.25,51.33,7.24s35.35,4,51-3.41c12.59-6,22.12-16.87,33.77-24.54,17.49-11.51,39.87-14.87,60.16-9.95v-3.67H133.22C132.2,284.64,129,286.8,125.87,287.41Zm37.46,4.86a8.84,8.84,0,1,1-8.84,8.84A8.84,8.84,0,0,1,163.33,292.27Z" style="fill:#7956A6"></path><path d="M236.3,295.43C224.65,303.1,215.12,314,202.53,320c-15.63,7.45-33.93,6.39-51,3.41s-34-7.76-51.33-7.24a64.69,64.69,0,0,0-27.15,6.73v13.82H296.46V285.48C276.17,280.56,253.79,283.92,236.3,295.43Zm-57.88,34.81a.88.88,0,1,1,.88-.88A.88.88,0,0,1,178.42,330.24Zm5.58,0a.88.88,0,0,1,0-1.76.88.88,0,0,1,0,1.76Zm5.57,0a.88.88,0,1,1,.88-.88A.88.88,0,0,1,189.57,330.24Zm98.05-19.81a2.88,2.88,0,1,1,0,4.07A2.87,2.87,0,0,1,287.62,310.43Z" style="fill:#7956A6"></path><path d="M178.42,328.48a.88.88,0,1,0,0,1.76.88.88,0,0,0,0-1.76Z" style="fill:#263238"></path><circle cx="184" cy="329.36" r="0.88" style="fill:#263238"></circle><circle cx="189.57" cy="329.36" r="0.88" style="fill:#263238"></circle><path d="M91.35,299.52c7.59-3.47,13.77-10.28,22-11.54,4.13-.64,8.4.22,12.5-.57,3.14-.61,6.33-2.77,7.35-5.6H73.07v19.38A28.61,28.61,0,0,0,91.35,299.52Z" style="fill:#7956A6"></path><g style="opacity:0.30000000000000004"><path d="M91.35,299.52c7.59-3.47,13.77-10.28,22-11.54,4.13-.64,8.4.22,12.5-.57,3.14-.61,6.33-2.77,7.35-5.6H73.07v19.38A28.61,28.61,0,0,0,91.35,299.52Z" style="fill:#fff"></path></g><circle cx="163.33" cy="301.11" r="8.84" transform="translate(-165.08 203.68) rotate(-45)" style="fill:#7956A6"></circle><g style="opacity:0.30000000000000004"><circle cx="163.33" cy="301.11" r="8.84" transform="translate(-165.08 203.68) rotate(-45)"></circle></g><circle cx="289.66" cy="312.46" r="2.88" style="fill:#7956A6"></circle><g style="opacity:0.30000000000000004"><path d="M236.3,295.43C224.65,303.1,215.12,314,202.53,320c-15.63,7.45-33.93,6.39-51,3.41s-34-7.76-51.33-7.24a64.69,64.69,0,0,0-27.15,6.73v13.82H296.46V285.48C276.17,280.56,253.79,283.92,236.3,295.43Zm-57.88,34.81a.88.88,0,1,1,.88-.88A.88.88,0,0,1,178.42,330.24Zm5.58,0a.88.88,0,0,1,0-1.76.88.88,0,0,1,0,1.76Zm5.57,0a.88.88,0,1,1,.88-.88A.88.88,0,0,1,189.57,330.24Zm98.05-19.81a2.88,2.88,0,1,1,0,4.07A2.87,2.87,0,0,1,287.62,310.43Z"></path></g><path d="M287.77,384.83a7.36,7.36,0,0,1,.82-.76c.53-.45,1.26-1.06,2.08-1.73v.16l0,0-2.05-1.82a6.5,6.5,0,0,1-.81-.8,5.71,5.71,0,0,1,.91.69c.54.44,1.28,1.07,2.09,1.77l0,0,.09.09-.09.07c-.83.67-1.58,1.26-2.12,1.68A6.26,6.26,0,0,1,287.77,384.83Z" style="fill:#263238"></path><path d="M82.78,379.85a6.36,6.36,0,0,1-.82.76c-.52.45-1.26,1.06-2.08,1.72v-.15l0,0c.81.7,1.54,1.35,2,1.82a5.75,5.75,0,0,1,.81.8,6,6,0,0,1-.9-.69c-.54-.44-1.28-1.07-2.09-1.77l0,0-.1-.08.1-.08c.82-.66,1.57-1.25,2.12-1.68A5.91,5.91,0,0,1,82.78,379.85Z" style="fill:#263238"></path></g></svg>