<svg xmlns="http://www.w3.org/2000/svg" viewBox="0 0 750 500"><g id="freepik--background-complete--inject-65"><path d="M249.18,129.64H122.54V43H249.18Zm-125.64-1H248.18V44H123.54Z" style="fill:#ebebeb"></path><path d="M132.44,48.58a2.52,2.52,0,1,1-2.52-2.52A2.52,2.52,0,0,1,132.44,48.58Z" style="fill:#a6a6a6"></path><path d="M142.73,48.58a2.52,2.52,0,1,1-2.52-2.52A2.51,2.51,0,0,1,142.73,48.58Z" style="fill:#ebebeb"></path><path d="M153,48.58a2.52,2.52,0,1,1-2.52-2.52A2.52,2.52,0,0,1,153,48.58Z" style="fill:#7A56A7"></path><rect x="123.04" y="53.02" width="125.64" height="1" style="fill:#ebebeb"></rect><polygon points="96.1 359.21 95.1 359.21 95.1 233.71 68.37 197.23 68.37 128.73 69.37 128.73 69.37 196.9 96.1 233.38 96.1 359.21" style="fill:#ebebeb"></polygon><path d="M68.87,129.27a2.88,2.88,0,1,1,2.87-2.87A2.88,2.88,0,0,1,68.87,129.27Zm0-4.75a1.88,1.88,0,1,0,1.87,1.88A1.88,1.88,0,0,0,68.87,124.52Z" style="fill:#ebebeb"></path><polygon points="89.21 359.21 88.21 359.21 88.21 238.12 61.48 201.64 61.48 153.73 62.48 153.73 62.48 201.31 89.21 237.79 89.21 359.21" style="fill:#ebebeb"></polygon><path d="M62,154.27a2.88,2.88,0,1,1,2.88-2.88A2.88,2.88,0,0,1,62,154.27Zm0-4.75a1.88,1.88,0,1,0,1.88,1.87A1.87,1.87,0,0,0,62,149.52Z" style="fill:#ebebeb"></path><rect x="101.73" y="192.8" width="1" height="166.41" style="fill:#ebebeb"></rect><path d="M102.23,193.3a2.88,2.88,0,1,1,2.88-2.87A2.88,2.88,0,0,1,102.23,193.3Zm0-4.75a1.88,1.88,0,1,0,1.88,1.88A1.88,1.88,0,0,0,102.23,188.55Z" style="fill:#ebebeb"></path><polygon points="109.12 359.21 108.12 359.21 108.12 274.51 108.17 274.4 126.26 240.28 126.26 179.04 127.26 179.04 127.26 240.53 109.12 274.76 109.12 359.21" style="fill:#ebebeb"></polygon><path d="M126.76,179.54a2.88,2.88,0,1,1,2.88-2.87A2.88,2.88,0,0,1,126.76,179.54Zm0-4.75a1.88,1.88,0,1,0,1.88,1.88A1.88,1.88,0,0,0,126.76,174.79Z" style="fill:#ebebeb"></path><polygon points="115.47 359.21 114.47 359.21 114.47 278.16 114.53 278.05 135.86 240.32 135.86 200.04 136.86 200.04 136.86 240.58 115.47 278.43 115.47 359.21" style="fill:#ebebeb"></polygon><path d="M136.36,200.54a2.88,2.88,0,1,1,2.87-2.88A2.88,2.88,0,0,1,136.36,200.54Zm0-4.75a1.88,1.88,0,1,0,1.87,1.87A1.88,1.88,0,0,0,136.36,195.79Z" style="fill:#ebebeb"></path><polygon points="658.51 359.21 657.51 359.21 657.51 293.38 657.61 293.25 684.24 256.9 684.24 218.73 685.24 218.73 685.24 257.23 685.14 257.36 658.51 293.71 658.51 359.21" style="fill:#ebebeb"></polygon><path d="M684.74,219.27a2.88,2.88,0,1,1,2.88-2.87A2.88,2.88,0,0,1,684.74,219.27Zm0-4.75a1.88,1.88,0,1,0,1.88,1.88A1.88,1.88,0,0,0,684.74,214.52Z" style="fill:#ebebeb"></path><polygon points="665.4 359.21 664.4 359.21 664.4 297.79 691.13 261.31 691.13 243.73 692.13 243.73 692.13 261.64 692.03 261.77 665.4 298.12 665.4 359.21" style="fill:#ebebeb"></polygon><path d="M691.63,244.27a2.88,2.88,0,1,1,2.87-2.88A2.88,2.88,0,0,1,691.63,244.27Zm0-4.75a1.88,1.88,0,1,0,1.87,1.87A1.88,1.88,0,0,0,691.63,239.52Z" style="fill:#ebebeb"></path><rect x="650.88" y="252.8" width="1" height="106.41" style="fill:#ebebeb"></rect><path d="M651.38,253.3a2.88,2.88,0,1,1,2.87-2.87A2.88,2.88,0,0,1,651.38,253.3Zm0-4.75a1.88,1.88,0,1,0,1.87,1.88A1.88,1.88,0,0,0,651.38,248.55Z" style="fill:#ebebeb"></path><polygon points="645.49 359.21 644.49 359.21 644.49 304.76 626.35 270.53 626.35 209.04 627.35 209.04 627.35 270.28 645.49 304.51 645.49 359.21" style="fill:#ebebeb"></polygon><path d="M626.84,209.54a2.88,2.88,0,1,1,2.88-2.87A2.88,2.88,0,0,1,626.84,209.54Zm0-4.75a1.88,1.88,0,1,0,1.88,1.88A1.88,1.88,0,0,0,626.84,204.79Z" style="fill:#ebebeb"></path><polygon points="639.14 359.21 638.14 359.21 638.14 308.43 616.75 270.58 616.75 230.04 617.75 230.04 617.75 270.32 639.14 308.16 639.14 359.21" style="fill:#ebebeb"></polygon><path d="M617.25,230.54a2.88,2.88,0,1,1,2.87-2.88A2.88,2.88,0,0,1,617.25,230.54Zm0-4.75a1.88,1.88,0,1,0,1.87,1.87A1.88,1.88,0,0,0,617.25,225.79Z" style="fill:#ebebeb"></path><path d="M67.5,125.61a3.16,3.16,0,0,1,3.3,0l.85.49.87.44a3.12,3.12,0,0,1,1.84,2.73l.13,4.06,13.23-.41-.12-4.06A3.13,3.13,0,0,1,89.26,126a18.07,18.07,0,0,0,1.68-1,3.15,3.15,0,0,1,3.29-.21l3.57,1.91L104.06,115l-3.58-1.91a3.17,3.17,0,0,1-1.64-2.86,18.52,18.52,0,0,0-.06-2,3.12,3.12,0,0,1,1.46-3l3.45-2.15-7-11.25-3.47,2.15a3.14,3.14,0,0,1-3.29,0c-.28-.17-.56-.33-.85-.48s-.57-.3-.87-.44a3.14,3.14,0,0,1-1.84-2.74l-.13-4.07L73,86.73l.13,4.06a3.13,3.13,0,0,1-1.66,2.85c-.58.32-1.14.67-1.68,1a3.15,3.15,0,0,1-3.29.22L63,93,56.7,104.65l3.57,1.92a3.13,3.13,0,0,1,1.64,2.85q0,1,.06,2a3.13,3.13,0,0,1-1.46,3l-3.44,2.13,7,11.25Zm3.31-20.9a10.85,10.85,0,1,1,4.44,14.69A10.86,10.86,0,0,1,70.81,104.71Z" style="fill:#ebebeb"></path><path d="M674.24,225.29a2.21,2.21,0,0,1,2-1.08c.23,0,.46,0,.69,0s.46,0,.68,0a2.2,2.2,0,0,1,2,1.08l1.43,2.47,8-4.64-1.42-2.46a2.21,2.21,0,0,1,.08-2.32,12.71,12.71,0,0,0,.69-1.19,2.21,2.21,0,0,1,2-1.22h2.84v-9.28h-2.84a2.21,2.21,0,0,1-2-1.22,12.71,12.71,0,0,0-.69-1.19,2.19,2.19,0,0,1-.08-2.31l1.42-2.47-8-4.64-1.43,2.48a2.19,2.19,0,0,1-2,1.07h-1.37a2.17,2.17,0,0,1-2-1.08l-1.42-2.47-8,4.64,1.42,2.46a2.19,2.19,0,0,1-.08,2.31q-.37.59-.69,1.2a2.21,2.21,0,0,1-2,1.22h-2.84v9.28h2.84a2.21,2.21,0,0,1,2,1.22q.32.61.69,1.2a2.19,2.19,0,0,1,.08,2.31l-1.42,2.46,8,4.64Zm-4.88-14a7.6,7.6,0,1,1,7.61,7.6A7.61,7.61,0,0,1,669.36,211.29Z" style="fill:#ebebeb"></path><path d="M107.38,137.31a2.22,2.22,0,0,1,1.08,2.05c0,.23,0,.46,0,.68s0,.46,0,.69a2.2,2.2,0,0,1-1.07,2l-2.47,1.42,4.63,8,2.47-1.42a2.19,2.19,0,0,1,2.31.08q.58.38,1.2.69a2.21,2.21,0,0,1,1.22,2v2.84H126v-2.84a2.21,2.21,0,0,1,1.22-2q.62-.32,1.2-.69a2.19,2.19,0,0,1,2.31-.08l2.47,1.42,4.63-8-2.47-1.43a2.19,2.19,0,0,1-1.08-2c0-.23,0-.46,0-.69s0-.45,0-.68a2.23,2.23,0,0,1,1.08-2.05l2.47-1.42-4.63-8-2.46,1.42a2.19,2.19,0,0,1-2.31-.08,13,13,0,0,0-1.21-.69,2.21,2.21,0,0,1-1.22-2v-2.84h-9.27v2.84a2.21,2.21,0,0,1-1.22,2,13,13,0,0,0-1.21.69,2.19,2.19,0,0,1-2.31.08l-2.46-1.42-4.63,8Zm14-4.87a7.6,7.6,0,1,1-7.59,7.6A7.6,7.6,0,0,1,121.38,132.44Z" style="fill:#ebebeb"></path></g><g id="freepik--Floor--inject-65"><path d="M715.21,358.83l-86.37-.19-259.09-.2-259.09.2-86.36.19a.25.25,0,0,0-.25.25.25.25,0,0,0,.25.25l86.36.2,259.09.2,259.09-.2,86.37-.2a.25.25,0,0,0,.25-.25A.26.26,0,0,0,715.21,358.83Z" style="fill:#263238"></path></g><g id="freepik--Device--inject-65"><rect x="138.36" y="63.91" width="471.59" height="315.46" style="fill:#ebebeb"></rect><rect x="141.79" y="67.76" width="464.73" height="307.76" style="fill:#263238"></rect><rect x="76.94" y="403.03" width="594.43" height="21.65" style="fill:#dbdbdb"></rect><polygon points="76.94 403.03 138.37 379.37 609.95 379.37 671.38 403.03 76.94 403.03" style="fill:#ebebeb"></polygon><polygon points="143.85 394.64 183.49 379.37 564.83 379.37 604.47 394.64 143.85 394.64" style="fill:#263238"></polygon><rect x="168.06" y="91.14" width="412.21" height="261" style="fill:#fff"></rect><rect x="167.71" y="91.14" width="412.56" height="10.04" style="fill:#455a64"></rect><path d="M175.69,96.16a2.49,2.49,0,1,1-2.49-2.49A2.5,2.5,0,0,1,175.69,96.16Z" style="fill:#c7c7c7"></path><path d="M185.86,96.16a2.49,2.49,0,1,1-2.49-2.49A2.49,2.49,0,0,1,185.86,96.16Z" style="fill:#fff"></path><path d="M196,96.16a2.49,2.49,0,1,1-2.49-2.49A2.49,2.49,0,0,1,196,96.16Z" style="fill:#7A56A7"></path><path d="M374.59,221.55a10.68,10.68,0,1,0-10.74-10.62A10.66,10.66,0,0,0,374.59,221.55Zm-9.44-10.62a9.38,9.38,0,1,1,9.43,9.32A9.37,9.37,0,0,1,365.15,210.93Zm9.44,10.62a10.68,10.68,0,1,0-10.74-10.62A10.66,10.66,0,0,0,374.59,221.55Zm-9.44-10.62a9.38,9.38,0,1,1,9.43,9.32A9.37,9.37,0,0,1,365.15,210.93Zm9.44,10.62a10.68,10.68,0,1,0-10.74-10.62A10.66,10.66,0,0,0,374.59,221.55Zm-9.44-10.62a9.38,9.38,0,1,1,9.43,9.32A9.37,9.37,0,0,1,365.15,210.93Zm9.5,22.45A22.51,22.51,0,1,0,352,211,22.51,22.51,0,0,0,374.65,233.38ZM362.19,211a12.34,12.34,0,1,1,12.4,12.26A12.35,12.35,0,0,1,362.19,211Zm1.66,0a10.68,10.68,0,1,0,10.61-10.74A10.68,10.68,0,0,0,363.85,210.93Zm1.3,0a9.38,9.38,0,1,1,9.43,9.32A9.37,9.37,0,0,1,365.15,210.93Zm9.44,10.62a10.68,10.68,0,1,0-10.74-10.62A10.66,10.66,0,0,0,374.59,221.55Zm-9.44-10.62a9.38,9.38,0,1,1,9.43,9.32A9.37,9.37,0,0,1,365.15,210.93Zm9.44,10.62a10.68,10.68,0,1,0-10.74-10.62A10.66,10.66,0,0,0,374.59,221.55Zm-9.44-10.62a9.38,9.38,0,1,1,9.43,9.32A9.37,9.37,0,0,1,365.15,210.93Z" style="fill:#7A56A7"></path><polygon points="370.07 189.32 378.73 189.27 378.21 183.15 370.51 183.19 370.07 189.32" style="fill:#7A56A7"></polygon><polygon points="386.56 192.14 392.72 198.23 396.68 193.53 391.21 188.12 386.56 192.14" style="fill:#7A56A7"></polygon><polygon points="396.23 205.79 396.28 214.45 402.4 213.94 402.36 206.24 396.23 205.79" style="fill:#7A56A7"></polygon><polygon points="393.41 222.29 387.33 228.44 392.02 232.41 397.43 226.93 393.41 222.29" style="fill:#7A56A7"></polygon><polygon points="379.76 231.95 371.1 232 371.62 238.13 379.31 238.08 379.76 231.95" style="fill:#7A56A7"></polygon><polygon points="363.27 229.13 357.11 223.05 353.14 227.75 358.62 233.16 363.27 229.13" style="fill:#7A56A7"></polygon><polygon points="353.6 215.48 353.55 206.83 347.43 207.34 347.47 215.04 353.6 215.48" style="fill:#7A56A7"></polygon><polygon points="356.42 198.99 362.5 192.84 357.81 188.87 352.4 194.34 356.42 198.99" style="fill:#7A56A7"></polygon><path d="M481.49,290.28h-213V276.79h213ZM269,289.78H481V277.29H269Z" style="fill:#7A56A7"></path><rect x="271.23" y="279.51" width="4.82" height="8.06" style="fill:#7A56A7"></rect><rect x="277.87" y="279.51" width="4.82" height="8.06" style="fill:#7A56A7"></rect><rect x="284.52" y="279.51" width="4.82" height="8.06" style="fill:#7A56A7"></rect><rect x="291.17" y="279.51" width="4.82" height="8.06" style="fill:#7A56A7"></rect><rect x="297.82" y="279.51" width="4.82" height="8.06" style="fill:#7A56A7"></rect><rect x="304.47" y="279.51" width="4.82" height="8.06" style="fill:#7A56A7"></rect><rect x="311.12" y="279.51" width="4.82" height="8.06" style="fill:#7A56A7"></rect><rect x="317.76" y="279.51" width="4.82" height="8.06" style="fill:#7A56A7"></rect><rect x="324.41" y="279.51" width="4.82" height="8.06" style="fill:#7A56A7"></rect><rect x="331.06" y="279.51" width="4.82" height="8.06" style="fill:#7A56A7"></rect><rect x="337.71" y="279.51" width="4.82" height="8.06" style="fill:#7A56A7"></rect><rect x="344.36" y="279.51" width="4.82" height="8.06" style="fill:#7A56A7"></rect><text transform="translate(340.51 313.95)" style="font-size:15.232080459594727px;fill:#263238;font-family:Raleway-SemiBold, Raleway;font-weight:600">UP<tspan x="20.94" y="0" style="letter-spacing:-0.024971709856640316em">D</tspan><tspan x="31.47" y="0" style="letter-spacing:-0.06997848859697793em">A</tspan><tspan x="40.68" y="0">TE...</tspan></text><circle cx="374.72" cy="168.02" r="4.71" style="fill:#7A56A7"></circle><path d="M347.41,174.12a4.48,4.48,0,1,0,4.48-4.48A4.49,4.49,0,0,0,347.41,174.12Z" style="fill:#7A56A7;opacity:0.9"></path><path d="M333.37,189.68a4.25,4.25,0,1,0,4.24-4.25A4.25,4.25,0,0,0,333.37,189.68Z" style="fill:#7A56A7;opacity:0.8"></path><circle cx="332.73" cy="210.58" r="4.02" style="fill:#7A56A7;opacity:0.7000000000000001"></circle><path d="M333.47,230.3a3.79,3.79,0,1,0,3.78-3.78A3.78,3.78,0,0,0,333.47,230.3Z" style="fill:#7A56A7;opacity:0.6000000000000001"></path><path d="M347.53,246.44a3.55,3.55,0,1,0,3.55-3.56A3.55,3.55,0,0,0,347.53,246.44Z" style="fill:#7A56A7;opacity:0.5"></path><path d="M371.55,253.18a3.32,3.32,0,1,0,3.32-3.32A3.32,3.32,0,0,0,371.55,253.18Z" style="fill:#7A56A7;opacity:0.4"></path><path d="M395.88,245.92a3.09,3.09,0,1,0,3.09-3.09A3.09,3.09,0,0,0,395.88,245.92Z" style="fill:#7A56A7;opacity:0.30000000000000004"></path><path d="M409.84,229a2.86,2.86,0,1,0,2.86-2.86A2.86,2.86,0,0,0,409.84,229Z" style="fill:#7A56A7;opacity:0.2"></path><path d="M414.47,210.16a2.63,2.63,0,1,0,2.63-2.63A2.62,2.62,0,0,0,414.47,210.16Z" style="fill:#7A56A7;opacity:0.1"></path><circle cx="410.29" cy="185.91" r="2.4" style="fill:#7A56A7;opacity:0.05"></circle><circle cx="393.98" cy="172.27" r="2.17" style="fill:#7A56A7;opacity:0.01"></circle></g><g id="freepik--Arrows--inject-65"><path d="M593.38,61.12,587,54.47a39.57,39.57,0,0,1,66.74,25.75l-9.16.68a30.38,30.38,0,0,0-51.24-19.78Z" style="fill:#7A56A7"></path><polygon points="636.3 74.79 645.64 98.67 661.65 78.66 636.3 74.79" style="fill:#7A56A7"></polygon><g style="opacity:0.2"><path d="M593.38,61.12,587,54.47a39.57,39.57,0,0,1,66.74,25.75l-9.16.68a30.38,30.38,0,0,0-51.24-19.78Z"></path><polygon points="636.3 74.79 645.64 98.67 661.65 78.66 636.3 74.79"></polygon></g><path d="M597.82,116.54A39.78,39.78,0,0,1,576,84l9.16-.68a30.38,30.38,0,0,0,52.58,18.41l6.74,6.24A39.77,39.77,0,0,1,597.82,116.54Z" style="fill:#7A56A7"></path><polygon points="593.44 89.44 584.11 65.56 568.09 85.58 593.44 89.44" style="fill:#7A56A7"></polygon></g><g id="freepik--Shadow--inject-65"><ellipse cx="474.03" cy="452.8" rx="96.83" ry="9.45" style="fill:#ebebeb"></ellipse></g><g id="freepik--Cloud--inject-65"><path d="M461.43,221.86a13.89,13.89,0,0,0,12.85,13.85v0h78.65a16.32,16.32,0,0,0,1.53-32.57,27.5,27.5,0,0,0-53.3-8.6,16.13,16.13,0,0,0-7.3-1.73,16.33,16.33,0,0,0-16.29,15.32,12.84,12.84,0,0,0-2.26-.19A13.89,13.89,0,0,0,461.43,221.86Z" style="fill:#7A56A7"></path><rect x="508.87" y="218.55" width="20.03" height="17.2" style="fill:#fff"></rect><polygon points="501.99 218.55 535.77 218.55 518.88 201.7 501.99 218.55" style="fill:#fff"></polygon></g></svg>